<?xml version="1.0" encoding="utf-8" ?><svg xmlns="http://www.w3.org/2000/svg" xmlns:xlink="http://www.w3.org/1999/xlink" width="734" height="758" viewBox="0 0 734 758"><path fill="#FFFFFE" d="M0 0L734 0L734 758L365.937 758L361.799 758L0 758L0 529.617L0 526.629L0 0Z"/><path fill="#9A410B" d="M0 526.629C6.1961 521.178 12.4399 515.782 18.7307 510.44C21.1697 508.385 24.8262 505.66 26.9869 503.636C28.427 506.531 29.8897 509.414 31.3749 512.287C24.4804 517.497 18.3158 523.265 11.5947 528.424C21.9549 526.299 28.2707 527.104 37.6451 525.978C38.848 529.106 40.3984 532.076 41.5263 535.044C31.253 535.437 13.2593 536.183 3.22678 535.697C2.20856 533.685 1.17602 531.529 0 529.617L0 526.629Z"/><path fill="#9A410B" d="M354.795 747.862C358.211 749.527 365.447 753.741 368.253 749.292C368.289 748.397 368.322 747.746 367.535 747.113C362.742 743.253 352.94 742.499 352.459 734.69C352.009 727.375 359.58 724.334 365.669 724.294C370.255 724.264 373.515 725.784 377.203 727.912C376.211 730.201 375.333 732.078 374.202 734.301C371.293 732.221 363.996 729.246 361.518 733.269C362.977 737.766 376.012 738.477 377.592 745.363C379.651 754.34 372.813 756.494 365.937 758L361.799 758C356.959 756.761 354.804 756.426 350.616 753.541L354.795 747.862Z"/><defs><linearGradient id="gradient_0" gradientUnits="userSpaceOnUse" x1="455.91571" y1="529.37604" x2="257.56" y2="270.70703"><stop offset="0" stop-color="#F97608"/><stop offset="1" stop-color="#FFBB07"/></linearGradient></defs><path fill="url(#gradient_0)" d="M308.683 230.398C312.064 241.162 314.386 252.342 317.209 263.305C322.59 283.438 327.789 303.619 332.806 323.846L338.41 345.843C343.106 363.867 343.858 364.11 356.587 378.162C364.74 373.004 372.81 368.655 381.112 363.821L443.811 327.621L442.612 325.538C444.687 308.565 447.064 289.258 450.026 272.417C453.022 269.348 454.721 268.228 458.435 266.042L470.239 308.076C471.143 311.262 473.501 321.856 475.001 323.881C474.376 325.955 461.522 333.189 459.091 334.783C461.348 335.484 460.029 334.722 461.878 334.79C466.222 332.506 473.6 328.394 478.012 327.008L525.406 361.154C522.974 362.992 520.015 365.328 517.52 366.987C498.002 361.526 479.165 356.16 459.515 350.999C424.298 374.336 390.521 400.011 355.772 424.018C353.015 425.923 349.362 428.681 346.493 430.243L347.551 431.041C355.2 427.097 362.864 423.202 370.269 418.812C373.077 417.148 375.906 415.511 378.918 414.242C383.768 419.618 385.872 427.048 390.212 431.18C395.893 436.588 405.023 442.132 411.448 446.819C431.063 460.887 450.883 474.666 470.902 488.151C478.436 493.231 486.163 498.061 493.605 503.23C486.86 504.612 471.14 506.199 463.977 506.315C462.75 506.335 455.196 502.426 453.434 501.586C445.627 497.906 437.87 494.12 430.165 490.23L354.751 452.785C346.731 448.871 336.633 445.963 328.052 442.367C319.524 448.426 311.203 455.395 302.509 461.349C298.272 464.251 294.221 467.86 289.811 470.511C271.17 481.767 248.082 489.806 226.275 490.204C212.041 490.464 227.267 470.551 230.527 466.08C249.767 439.689 276.495 425.052 303.832 408.68C304.092 398.966 306.152 390.445 304.989 380.334C303.84 370.344 302.964 360.137 302.021 350.114L295.348 276.911C295.039 273.179 293.094 258.705 293.86 256.686C296.553 249.587 304.587 237.214 308.683 230.398Z"/><path fill="#F2F3AB" d="M442.612 325.538C447.532 323.895 450.23 322.21 454.823 320.167C451.261 323.307 447.87 325.228 443.811 327.621L442.612 325.538Z"/><path fill="#F2F3AB" d="M459.091 334.783C461.348 335.484 460.029 334.722 461.878 334.79C460.376 336.211 454.847 338.01 452.68 338.752C454.735 337.137 456.638 335.76 459.091 334.783Z"/><path fill="#F2F3AB" d="M346.493 430.243L347.551 431.041C346.555 432.12 342.459 433.6 340.991 434.175C343.102 432.302 344.104 431.712 346.493 430.243Z"/><defs><linearGradient id="gradient_1" gradientUnits="userSpaceOnUse" x1="370.72861" y1="387.5733" x2="340.77353" y2="658.62445"><stop offset="0" stop-color="#AA400D"/><stop offset="1" stop-color="#D75E0F"/></linearGradient></defs><path fill="url(#gradient_1)" d="M92.3095 352.41C92.8692 353.568 92.8888 353.53 93.0679 354.881C92.9727 356.583 92.8514 360.273 92.5447 361.8C92.4536 376.815 93.5701 391.813 95.8835 406.649C104.739 459.752 129.873 508.794 167.81 546.995C222.652 601.424 296.929 631.75 374.197 631.261C495.52 631.308 619.525 550.311 647.413 428.459C648.665 430.167 648.298 430.023 648.546 432.39C648.566 435.802 648.026 441.023 647.573 444.394C639.291 507.313 605.977 564.232 555.171 602.266C432.183 696.077 237.983 677.156 143.061 551.954C100.223 496.43 81.7632 425.895 91.9102 356.507C91.864 355.611 92.1914 353.406 92.3095 352.41Z"/><path fill="#FBA207" d="M92.3095 352.41C92.8692 353.568 92.8888 353.53 93.0679 354.881C92.9727 356.583 92.8514 360.273 92.5447 361.8C92.3635 360.061 92.6569 357.918 91.9102 356.507C91.864 355.611 92.1914 353.406 92.3095 352.41Z"/><path fill="#F57F0A" d="M117.908 284.765C138.119 223.14 184.756 172.5 242.284 143.389C292.432 118.491 349.117 109.915 404.386 118.863C418.415 121.058 429.853 123.329 443.322 127.863C460.831 133.758 477.309 139.938 492.881 150.116C495.301 151.697 500.18 154.498 502.176 156.37L501.82 156.551C372.287 87.9067 199.641 151.086 146.095 288.019C146.728 282.282 144.387 285.896 143.371 281.883C140.661 279.617 133.302 282.44 129.912 282.352C127.898 282.299 124.945 281.497 122.95 280.993C119.746 282.614 120.248 282.212 117.908 284.765Z"/><defs><linearGradient id="gradient_2" gradientUnits="userSpaceOnUse" x1="512.54352" y1="172.00098" x2="315.66693" y2="288.94775"><stop offset="0" stop-color="#D3530F"/><stop offset="1" stop-color="#743D1F"/></linearGradient></defs><path fill="url(#gradient_2)" d="M249.002 176.95C306.556 141.566 375.072 130.598 440.735 147.228C480.669 157.341 514.148 177.062 537.229 211.969C567.264 257.395 548.933 302.914 505.099 329.529C504.641 329.807 504.219 330.024 503.735 330.271C495.235 326.592 494.262 324.563 488.962 316.982C485.178 311.571 484.358 311.196 482.599 304.422C515.907 287.038 539.152 256.173 519.52 218.704C502.17 185.59 468.331 166.453 433.595 156.116C383.025 141.519 329.042 144.094 280.091 163.439C272.849 166.228 256.435 172.598 250.412 177.16L249.002 176.95Z"/><defs><linearGradient id="gradient_3" gradientUnits="userSpaceOnUse" x1="221.11958" y1="399.94745" x2="125.57714" y2="462.30469"><stop offset="0" stop-color="#EE6E04"/><stop offset="1" stop-color="#963E16"/></linearGradient></defs><path fill="url(#gradient_3)" d="M117.908 284.765C120.248 282.212 119.746 282.614 122.95 280.993C124.945 281.497 127.898 282.299 129.912 282.352C133.302 282.44 140.661 279.617 143.371 281.883C144.387 285.896 146.728 282.282 146.095 288.019C144.775 292.727 142.854 297.198 141.405 301.769C139.462 307.898 137.582 314.995 136.25 321.296C123.407 381.216 133.106 443.767 163.493 496.984C181.524 529.12 204.608 554.088 234.17 575.902L233.246 576.922C137.152 523.766 87.4489 410.382 112.395 303.593C113.585 298.496 115.775 289.178 117.908 284.765Z"/><path fill="#F57F0A" d="M643.743 111.244C666.079 107.619 687.105 122.843 690.632 145.192C694.159 167.542 678.843 188.5 656.476 191.929C634.247 195.336 613.446 180.136 609.941 157.925C606.435 135.713 621.545 114.847 643.743 111.244Z"/><path fill="#FFFFFE" d="M649.517 128.888C675.85 126.535 684.592 165.416 651.363 173.648C638.788 175.638 627.009 165.932 627.449 153.188C627.873 140.907 637.885 131.118 649.517 128.888Z"/><path fill="#F57F0A" d="M75.7947 105.846C80.3935 108.669 91.2352 118.339 96.1302 122.176L120.043 140.706C125.346 144.734 133.558 150.586 138.023 155.166C134.785 158.921 129.032 165.074 125.413 168.32C120.15 164.026 115.451 160.097 109.995 155.965C101.664 149.653 90.804 142.309 83.5347 134.989C89.8546 147.104 95.4755 159.443 101.444 171.73C103.635 176.242 105.51 180.874 107.203 185.594C105.156 188.352 102.47 190.878 99.9005 193.14C91.4401 189.534 82.8582 185.412 74.3925 181.71C65.602 177.867 56.5068 174.032 48.1043 169.451C51.5068 172.938 54.8188 176.513 58.037 180.171C66.1118 189.508 76.2925 199.867 83.9544 209.356C81.634 212.699 74.2193 219.778 71.0491 222.899C66.7803 217.413 59.8238 210.047 55.0881 204.734L31.8647 178.231C27.281 172.994 22.0908 168.379 18.5364 162.499C23.41 157.313 29.1845 151.855 34.2544 146.72C39.314 148.336 44.3826 150.803 49.2599 152.952C60.1245 157.738 71.2862 162.534 81.8809 167.865L67.2047 138.5C64.4798 133.119 61.5192 128.112 58.9802 122.61C64.4968 116.934 70.1024 111.346 75.7947 105.846Z"/><path fill="#F57F0A" d="M570.414 56.397C590.516 54.6674 614.78 70.9997 616.514 92.0889C616.79 95.4582 616.207 98.6932 615.541 101.98C609.638 99.6331 603.81 97.0613 597.93 94.6385C598.267 84.8461 591.848 78.4538 583.459 75.0766C570.994 70.0589 559.088 77.9879 554.602 89.6487C549.464 103.003 554.611 114.629 568.212 119.265C576.268 122.011 580.333 120.597 587.784 117.119C583.017 114.004 577.53 111.195 572.544 108.017C571.694 107.454 571.468 107.472 571.134 106.56C571.48 104.277 576.814 97.059 578.542 94.3736C583.531 96.9681 589.448 100.766 594.332 103.755C599.761 107.078 606.546 111.039 611.333 115.048C610.194 117.588 607.996 120.302 606.401 122.538C600.997 130.121 592.461 136.425 582.925 137.476C569.925 138.643 559.726 134.78 549.477 127.116C530.493 112.918 528.609 88.9228 542.742 70.5126C549.39 61.8527 559.506 57.5291 570.414 56.397Z"/><path fill="#F57F0A" d="M138.802 61.7753C141.552 62.9686 147.713 68.0365 150.584 70.0617C169.771 83.5967 189.489 96.8047 208.612 110.381C203.405 113.392 196.072 118.833 191.305 121.204C187.165 118.462 181.698 114.194 177.747 111.059C173.864 113.546 169.936 115.962 165.965 118.305C162.144 120.558 158.306 122.783 154.452 124.978C155.88 130.082 156.65 136.276 158.091 141.725L141.316 152.141C140.401 149.43 139.889 146.972 139.243 144.211C133.595 120.076 128.551 95.7952 123.455 71.5338C126.485 69.1756 135.368 63.7426 138.802 61.7753Z"/><path fill="#FFFFFE" d="M143.836 85.0226C144.647 85.6161 147.296 88.0238 148.369 88.8881C153.939 93.3747 158.875 97.5828 164.863 101.509L159.376 104.541C156.167 106.644 154.199 107.91 151.179 110.332C148.233 102.165 146.26 93.3953 143.836 85.0226Z"/><path fill="#F57F0A" d="M463.623 12.5014C468.338 13.2105 476.888 15.7096 481.769 17.0108C482.051 24.3666 483.658 33.4777 484.714 40.9076C486.423 52.9365 487.999 64.9839 489.442 77.0475C490.265 83.9335 491.339 91.5594 491.578 98.4409C484.952 97.3873 478.665 94.9745 472.333 94.0783C471.623 88.5466 471.586 83.1378 470.665 77.4644C465.442 75.8862 460.188 74.4109 454.906 73.0393C451.274 72.0649 447.656 71.0417 444.052 69.97C440.814 74.1341 437.697 79.3691 434.376 83.8409C427.592 82.0784 420.775 80.4458 413.928 78.9442C417.354 73.305 426.728 61.6734 431.132 55.7383L450.639 29.722C454.88 24.0428 459.18 17.9861 463.623 12.5014Z"/><path fill="#FFFFFE" d="M466.94 35.7808C467.514 37.8015 469.001 58.2678 469.266 61.686C465.724 60.5995 461.585 59.5889 457.956 58.6278C455.426 57.6578 454.765 57.4614 452.097 57.0303C456.549 50.7925 463.085 42.0968 466.94 35.7808Z"/><path fill="#F57F0A" d="M312.818 4.95218C314.005 4.79941 316.42 4.76465 317.706 4.70453C324.715 16.5522 332.175 29.1859 339.518 40.7807C343.922 47.6811 348.232 54.642 352.445 61.6612C355.101 66.0026 358.433 71.1397 360.643 75.6171C353.972 76.7863 347.129 77.3013 340.302 78.5024C338.373 73.9457 334.476 67.5422 331.7 63.6285C328.995 64.0488 326.285 64.4396 323.571 64.801C318.285 65.0906 310.047 66.6386 304.051 67.1532C303.027 72.5746 302.14 78.0209 301.391 83.4871C297.199 84.5156 285.863 85.459 281.592 85.5385C284.595 70.4512 288.347 54.8669 291.851 39.8996C294.297 29.4537 296.215 17.2663 298.975 7.06773C302.629 6.09956 308.968 5.40775 312.818 4.95218Z"/><path fill="#FFFFFE" d="M311.556 27.9206C312.85 29.0864 317.404 38.1179 318.689 40.3493C320.565 43.5782 322.548 46.744 324.634 49.8415L319.346 50.5001C315.402 50.9722 311.298 51.5953 307.349 52.1379C308.566 43.7961 310.349 36.0162 311.556 27.9206Z"/><path fill="#F57F0A" d="M227.483 23.4207C229.885 23.1523 232.305 23.076 234.72 23.1924C245.674 23.8074 253.797 29.1501 260.931 37.0585C255.988 39.7481 249.149 42.9061 244.007 45.3301C233.968 39.3405 224.74 37.6756 215.61 46.205C205.838 55.334 211.49 71.5343 219.425 79.6581C227.468 87.894 240.123 87.1131 248.275 79.6929C251.962 76.3376 252.107 71.0272 252.131 66.5144C257.559 64.3249 264.091 62.3555 269.693 60.7244C270.621 60.6463 270.171 60.5814 271.042 60.9217C271.838 63.1887 271.498 65.726 271.45 68.0769C271.317 74.5867 270.202 79.5071 266.495 84.9525C260.413 93.7559 251.06 99.7596 240.523 101.625C216.167 106.175 196.568 92.154 191.975 68.1656C187.363 44.0815 205.045 27.0036 227.483 23.4207Z"/><path fill="#F57F0A" d="M356.624 0.785108C358.831 1.11278 361.684 1.22094 363.935 1.34671C383.871 2.46057 404.062 3.93768 424.01 4.03763C424.213 8.98684 423.912 14.7799 423.761 19.8026C415.731 19.418 408.182 18.8794 400.078 18.6551C399.866 30.2523 399.133 42.0661 398.564 53.6719C397.996 61.3684 397.933 71.1376 397.785 78.9104C391.454 78.8617 385.126 78.6325 378.809 78.2229C378.59 70.7903 379.211 61.9353 379.498 54.4082C379.96 42.3257 380.299 30.2387 380.516 18.1493C372.508 17.846 364.529 17.1343 356.503 16.7258L356.624 0.785108Z"/><path fill="#9A410B" d="M674.718 566.442C675.833 566.976 678.94 569.862 680.056 570.783C690.998 579.814 702.006 589.318 713.889 597.083C712.243 600.489 710.611 602.94 708.549 606.058C704.13 602.094 698.757 598.985 694.055 595.057C693.906 595.46 693.935 595.284 693.953 595.826C694.37 602.399 689.842 610.598 682.57 610.614C672.768 610.637 661.624 600.108 661.922 590.103C662.021 586.782 663.31 582.108 666.07 580.048C667.911 578.674 670.654 578.12 672.284 576.433C671.428 575.484 671.304 575.424 670.712 574.25C670.96 572.64 673.82 568.001 674.718 566.442Z"/><path fill="#FFFFFE" d="M675.804 582.157C682.909 582.484 695.113 595.05 682.669 600.992C682.117 600.933 681.567 600.855 681.021 600.756C671.887 599.018 665.431 588.385 675.804 582.157Z"/><path fill="#9A410B" d="M508.5 698.119C524.785 696.514 533.019 718.439 521.798 729.115C518.093 732.639 512.316 732.905 507.598 731.263L513.098 747.629L508.766 749.099C507.418 749.522 505.457 750.329 504.08 750.842C498.89 737.144 492.859 719.899 488.27 705.975L496.45 702.993L497.548 706.089L498.088 706.057C499.249 705.097 499.385 703.802 500.149 702.609C501.808 700.018 505.764 698.842 508.5 698.119Z"/><path fill="#FFFFFE" d="M507.312 706.212C516.727 705.797 522.65 721.486 511.485 725.951C503.276 725.893 502.697 718.825 500.682 712.049C502.65 708.656 503.669 707.412 507.312 706.212Z"/><path fill="#9A410B" d="M470.17 710.322C481.432 709.037 483.529 716.116 486.089 725.313C487.414 730.071 488.468 734.938 489.589 739.748C486.938 740.594 483.272 741.325 480.49 741.957C479.479 738.114 475.821 719.961 472.488 719.029C459.413 715.371 468.071 738.625 469.547 744.547C466.744 745.408 463.513 746.111 460.634 746.805C459.15 741.752 457.823 736.654 456.656 731.518C456.073 729.188 454.756 723.317 451.39 723.147C439.27 722.535 447.467 741.789 448.968 749.295C446.198 750.041 442.959 750.697 440.132 751.341C437.183 741.168 435.11 730.428 432.254 720.084L440.771 718.028L441.977 721.809C447.008 714.849 453.923 712.632 461.282 717.893C464.052 713.541 465.504 712.166 470.17 710.322Z"/><path fill="#9A410B" d="M649.794 602.612C658.656 602.191 663.073 608.129 669.292 613.794C672.406 616.658 675.667 619.358 679.063 621.883C677.613 623.07 675.98 624.445 674.474 625.538C671.395 627.772 672.127 625.956 669.649 625.509C669.055 626.424 669.306 627.18 669.108 628.231C666.933 639.813 657.658 642.892 648.889 636.562C640.867 627.842 648.908 619.56 655.838 613.824C654.05 612.846 652.161 611.977 650.32 611.093C644.713 613.341 642.482 617.013 641.147 622.656C639.296 621.996 637.615 621.636 635.712 621.185C637.169 612.013 640.467 605.765 649.794 602.612Z"/><path fill="#FFFFFE" d="M659.481 618.337C660.649 618.794 663.23 621.168 663.731 622.341C665.318 626.058 662.529 629.413 659.264 630.854C649.036 629.984 655.673 622.133 659.481 618.337Z"/><path fill="#9A410B" d="M83.571 599.762C90.1056 600.418 100.314 608.867 100.676 615.733C101.101 623.771 93.8011 628.705 88.7098 633.802C86.0315 636.483 83.9135 638.775 81.5406 641.606C78.932 639.275 77.471 637.548 75.2457 634.855C76.0226 634.148 76.4416 633.883 76.8532 632.906L76.2748 632.505C74.2606 632.423 73.5893 632.319 71.7008 631.622C67.2743 629.043 63.423 625.222 63.2201 619.764C62.9894 613.556 67.7229 608.691 73.9979 609.027C81.1182 609.409 85.1554 615.095 89.4435 620.004C94.8994 612.133 88.4014 608.182 81.2241 605.895C81.9837 603.1 82.2466 602.312 83.571 599.762Z"/><path fill="#FFFFFE" d="M75.1742 617.303C79.7423 617.423 81.9815 620.584 84.5566 623.888C83.3446 625.121 81.8816 626.315 80.5619 627.451C76.2269 629.102 68.1177 622.39 75.1742 617.303Z"/><path fill="#9A410B" d="M47.9018 555.283C55.1554 558.681 63.8337 566.265 63.0925 574.82C62.2801 584.198 46.0115 590.683 39.363 596.432C36.0097 592.419 35.7923 591.968 35.5887 587.07C34.6293 585.574 33.7533 585.487 31.9941 584.587C27.7168 581.363 24.1061 577.369 25.2802 571.502C25.8135 568.949 27.3749 566.728 29.5973 565.361C32.0832 563.818 35.0841 563.334 37.9292 564.019C44.1527 565.525 48.2791 571.984 51.367 577.029C56.8954 570.076 52.9042 564.914 45.3643 562.547C46.1403 560.049 46.9967 557.737 47.9018 555.283Z"/><path fill="#FFFFFE" d="M37.1401 572.45C41.7364 572.346 44.0503 576.116 45.7778 579.777C44.4227 581.046 43.2184 581.876 41.7249 582.95C37.866 584.374 29.8837 576.704 37.1401 572.45Z"/><path fill="#9A410B" d="M614.72 638.161C624.458 638.236 632.466 652.552 640.372 659.921C637.785 661.864 635.699 663.335 632.977 665.079C632.186 664.223 631.315 663.051 630.263 662.755C629.352 666.366 628.937 668.715 626.228 671.315C623.668 673.793 620.212 675.125 616.651 675.009C612.957 674.871 610.845 673.723 608.404 671.139C608.259 670.886 608.119 670.629 607.984 670.37C603.219 661.161 611.683 653.467 619.349 649.938C617.067 648.432 616.23 647.924 613.741 646.83C613.317 646.973 612.897 647.124 612.479 647.285C608.043 648.969 605.62 651.862 603.712 656.043L597.181 652.812C601.796 644.99 605.46 640.063 614.72 638.161Z"/><path fill="#FFFFFE" d="M621.846 654.283C627.752 658.507 626.14 665.644 619.33 666.828C610.573 663.598 617.645 657.583 621.846 654.283Z"/><path fill="#9A410B" d="M693.012 529.775C702.211 536.271 714.548 542.288 724.356 548.857C723.144 551.027 721.786 553.066 720.435 555.151L716.564 553.909C717.47 558.911 717.832 563.032 715.256 567.689C708.264 580.326 694.407 569.474 686.267 564.481C683.51 562.902 680.521 560.877 677.826 559.138C679.386 556.305 681.252 553.498 683.001 550.765C688.854 554.352 700.098 561.747 706.055 563.49C720.597 553.174 696.492 543.285 688.21 539.088C689.761 536.52 691.619 532.539 693.012 529.775Z"/><path fill="#F57F0A" d="M714.005 167.945C716.383 168.154 725.118 179.097 727.121 181.462C717.645 190.048 701.613 199.807 691.03 207.756L689.344 208.855C687.667 208.52 680.725 200.547 679.002 198.676C690.853 188.664 701.868 178.084 714.005 167.945Z"/><path fill="#9A410B" d="M559.558 675.2C568.267 674.744 573.29 679.502 576.356 687.18C570.582 690.185 561.91 694.837 556.278 697.446C563.176 703.351 569.308 701.658 573.384 693.658C576.283 694.867 578.282 695.764 581.047 697.23C579.171 702.026 571.77 706.925 566.937 708.317C562.627 709.604 557.979 709.072 554.07 706.846C549.952 704.483 546.975 700.543 545.825 695.937C543.12 685.274 549.446 677.642 559.558 675.2Z"/><path fill="#FFFFFE" d="M559.906 682.177C563.088 682.743 564.067 683.882 566.21 686.114C563.383 687.468 560.709 688.947 557.959 690.444L553.941 692.597C553.483 686.691 553.406 683.767 559.906 682.177Z"/><path fill="#9A410B" d="M302.988 719.277C307.843 718.981 312.582 720.066 315.835 723.983C319.971 728.962 319.441 734.298 319 740.255C311.386 739.578 303.929 737.997 296.361 737.45C298.549 746.182 304.474 747.587 312.073 743.6C313.513 746.094 314.687 748.128 316.335 750.477C308.788 753.362 300.587 754.228 293.67 749.056C290.521 746.747 288.471 743.236 288.009 739.359C286.731 729.382 292.386 720.267 302.988 719.277Z"/><path fill="#FFFFFE" d="M302.592 725.867C306.521 725.663 310.363 727.504 311.114 731.669C310.75 732.936 311.081 732.409 310.05 733.282L305.755 732.704L297.462 731.73C298.993 728.537 299.52 727.542 302.592 725.867Z"/><path fill="#9A410B" d="M410.073 722.201C422.567 720.991 427.137 728.203 428.036 739.395C420.15 740.062 413.468 740.776 405.632 741.962C410.475 749.984 416.025 749.67 422.832 744.042L425.06 746.131L428.584 749.656C422.218 754.815 411.322 757.558 404.404 753.052C391.511 744.656 394.614 725.694 410.073 722.201Z"/><path fill="#FFFFFE" d="M410.826 728.826C415.96 728.503 416.694 730.185 418.9 734.384L412.993 735.058C410.44 735.516 407.891 735.736 405.312 735.999C406.464 731.541 406.392 730.644 410.826 728.826Z"/><path fill="#9A410B" d="M175.318 671.597L182.749 676.194C182.197 677.395 181.653 678.6 181.116 679.808C188.133 677.698 195.736 678.366 198.484 685.996C201.218 693.585 191.246 708.403 187.737 714.705L179.31 710.422C181.143 706.523 183.487 702.459 185.577 698.659C187.509 695.141 194.276 684.424 180.942 684.966C178.067 685.082 171.043 700.592 168.494 704.834C165.837 703.564 162.815 701.834 160.056 700.47C164.971 690.755 170.059 681.129 175.318 671.597Z"/><path fill="#FBA207" d="M297.465 365.994L298.083 366.448C300.305 374.621 301.113 385.43 302.112 393.886C302.719 399.023 293.513 404.394 288.943 403.923C286.656 403.687 285.677 402.323 284.263 400.612C281.997 397.513 279.848 394.33 277.82 391.07C276.545 389.023 274.199 385.557 274.906 383.078C276.207 378.511 292.859 368.789 297.465 365.994Z"/><path fill="#F57F0A" d="M340.801 479.388C336.516 475.205 325.123 463.539 328.977 456.672C334.095 447.553 344.37 452.573 351.396 455.958C356.424 458.38 361.702 460.77 366.789 463.392C361.962 467.091 354.992 472.911 349.71 476.113C349.169 476.441 348.99 476.164 348.267 475.834C347.678 475.966 347.268 476.054 346.667 476.152L346.441 477.063L345.963 477.819C344.249 478.817 342.747 478.984 340.801 479.388Z"/><path fill="#F2F3AB" d="M336.424 463.264C340.104 466.542 344.188 471.907 348.267 475.834C347.678 475.966 347.268 476.054 346.667 476.152L346.441 477.063C342.955 472.293 339.545 468.317 336.424 463.264Z"/><path fill="#9A410B" d="M592.581 653.981C593.63 654.772 595.309 657.879 595.37 659.165C595.747 667.104 594.31 676.098 593.52 684.007C597.05 681.428 602.981 677.933 606.838 675.787L611.319 681.498C604.39 685.657 595.606 691.271 589.104 695.974C588.244 696.555 588.724 696.446 587.685 696.445C582.049 693.231 585.94 673.187 586.79 667.352C582.637 669.513 578.854 672.164 574.969 674.769L570.619 668.459C577 663.809 585.806 658.149 592.581 653.981Z"/><path fill="#9A410B" d="M333.896 723.298C339.935 723.012 343.777 724.089 348.69 727.57C347.93 729.104 346.395 731.426 345.438 732.96C342.895 731.309 332.603 726.851 333.303 733.305C336.716 737.801 356.131 740.108 345.559 753.385C343.307 756.213 338.602 756.552 335.247 756.598C328.966 755.69 326.01 754.771 321.038 750.735C322.458 749.291 324.038 747.31 325.372 745.724C328.663 748.3 334.606 751.891 338.635 748.4C339.082 748.012 338.917 747.803 338.915 747.205C338.013 745.741 335.542 743.986 333.961 743.433C321.984 739.248 318.606 726.25 333.896 723.298Z"/><path fill="#9A410B" d="M137.778 650.414C144.217 650.056 150.343 654.188 153.822 659.522C154.578 660.683 154.451 662.012 154.011 663.259C152.593 664.492 150.486 665.218 148.708 665.979C147.413 662.367 143.502 655.403 138.857 658.786C137.257 663.405 147.421 668.868 146.194 675.511C145.041 681.748 141.012 684.068 134.98 683.317C126.534 680.685 122.508 677.541 119.132 669.113L125.854 666.908C127.141 670.512 132.619 679.583 136.939 675.047C137.928 670.362 131.014 666.258 129.96 661.529C128.548 655.198 131.601 651.648 137.778 650.414Z"/><path fill="#9A410B" d="M223.637 697.401C230.666 696.87 236.011 700.247 240.578 705.155C239.038 707.71 238.493 708.33 236.488 710.558C234.028 707.903 229.318 703.176 225.454 705.27C224.544 706.51 224.733 705.854 224.663 707.232C225.761 709.774 228.798 711.901 231.124 713.831C236.044 717.913 237.119 723.312 232.843 728.428C230.963 730.677 227.295 730.759 224.445 730.78C217.151 729.501 212.344 726.792 208.04 720.76C209.805 719.444 211.941 718.059 213.783 716.802C213.833 716.883 213.883 716.964 213.933 717.044L214.19 717.443C216.123 720.507 222.497 725.998 225.904 722.941C226.878 719.798 224.47 717.672 222.145 715.836C214.835 710.063 211.41 700.682 223.637 697.401Z"/><path fill="#9A410B" d="M251.358 698.389C254.031 699.004 256.709 699.602 259.39 700.183C258.725 702.927 258.013 705.66 257.253 708.379C259.911 709.196 262.565 710.029 265.213 710.879C264.539 713.014 263.929 715.447 263.332 717.628C260.825 716.813 257.777 716.088 255.188 715.407C253.598 719.866 249.961 728.302 251.799 732.734C252.415 734.218 255.731 734.562 257.293 735.105C258.133 736.255 257.829 736.005 257.57 737.941L256.71 741.853C234.966 739.416 241.823 727.452 246.421 712.782C245.029 712.347 243.27 711.644 241.866 711.132C242.646 708.422 243.18 707.095 244.314 704.496L248.674 705.719C249.745 703.099 250.495 701.081 251.358 698.389Z"/><path fill="#9A410B" d="M73.2934 583.279C74.6485 584.334 78.4766 588.723 79.7796 590.169C72.6291 596.107 65.2064 601.709 58.1153 607.792C51.53 613.441 46.119 618.299 37.5791 613.494C34.8213 611.623 33.2852 609.7 31.2337 607.134L36.8433 603.571L37.0737 603.756L37.4616 604.059C39.488 605.657 39.7746 605.872 42.1223 606.983C46.7897 605.006 55.5106 597.42 59.8369 593.886C64.2497 590.259 68.7361 586.723 73.2934 583.279Z"/><path fill="#9A410B" d="M110.632 622.486C112.834 624.957 114.381 626.673 116.816 628.881L114.093 631.845C119.865 631.585 121.548 632.315 126.098 635.514C124.168 637.685 122.589 639.606 120.789 641.89C111.196 634.219 109.351 638.003 102.435 645.902C100.118 648.525 97.7685 651.119 95.3881 653.685C93.1042 651.849 90.305 649.201 88.0686 647.208C92.1561 643.161 95.8761 638.654 99.7746 634.409C103.424 630.435 107.211 626.658 110.632 622.486Z"/><path fill="#9A410B" d="M270.781 712.336C272.951 713.131 276.516 714.036 278.779 714.674C278.566 715.898 278.354 716.601 278.558 717.839C279.331 717.5 280.106 717.166 280.884 716.836C284.31 715.343 285.678 715.683 289.461 715.772C289.033 718.63 288.408 721.68 287.878 724.538C278.321 720.576 276.572 725.943 274.737 734.034C273.848 737.844 272.881 741.634 271.835 745.403C268.929 744.821 266.03 744.204 263.139 743.552C265.11 734.056 268.097 721.61 270.781 712.336Z"/><path fill="#9A410B" d="M699.987 511.704C710.946 517.445 721.993 522.799 732.863 528.717L729.189 537.968C723.526 534.679 717.127 531.488 711.298 528.434C706.727 526.039 700.821 522.787 696.109 520.969C697.436 517.895 698.729 514.807 699.987 511.704Z"/><path fill="#F57F0A" d="M667.388 205.75C673.075 204.729 678.521 208.488 679.582 214.167C680.642 219.847 676.92 225.318 671.248 226.417C665.52 227.527 659.983 223.761 658.912 218.026C657.841 212.292 661.646 206.782 667.388 205.75Z"/><path fill="#9A410B" d="M43.6132 539.04C44.4517 539.889 47.5832 545.765 48.3447 547.163C38.4488 551.734 27.5644 557.122 17.6245 561.258C16.272 560.566 13.7372 554.251 12.9326 552.436C23.8535 548.558 33.694 542.534 43.6132 539.04Z"/><path fill="#9A410B" d="M533.788 687.301C533.812 687.311 533.838 687.317 533.861 687.329C535.738 688.347 546.323 713.855 547.736 717.633C544.884 719.271 542.388 720.375 539.409 721.714C538.936 721.34 526.776 693.905 525.504 691.162C528.303 689.963 531.042 688.619 533.788 687.301Z"/><path fill="#9A410B" d="M161.269 663.392C164.021 665.015 166.789 666.61 169.573 668.176C163.994 677.413 158.316 686.59 152.539 695.704C151.129 695.359 145.734 691.551 144.212 690.512C150.651 681.617 155.493 672.702 161.269 663.392Z"/><path fill="#9A410B" d="M53.4982 532.609C59.9505 532.584 63.3097 541.019 55.4317 543.702C51.315 543.509 47.9575 540.83 49.248 536.264C49.8249 534.224 51.712 533.483 53.4982 532.609Z"/><path fill="#9A410B" d="M81.9903 575.148C83.0616 575.06 83.943 575.06 84.9888 575.408C86.5901 575.958 87.8974 577.137 88.6077 578.674C89.2577 580.093 89.2679 581.723 88.6358 583.15C87.8717 584.868 86.6802 585.182 84.9956 585.907C82.6085 585.954 80.1933 585.183 79.059 583.031C76.9602 579.048 79.0565 576.97 81.9903 575.148Z"/><path fill="#9A410B" d="M168.064 652.499C170.649 652.479 172.602 652.648 174.269 654.903C175.14 656.066 175.463 657.551 175.155 658.971C174.686 661.234 173.438 662.057 171.621 663.227C168.763 662.946 166.32 662.265 164.902 659.507C164.343 658.439 164.24 657.191 164.615 656.046C165.242 654.099 166.38 653.409 168.064 652.499Z"/><path fill="#9A410B" d="M524.867 675.849C532.221 675.565 534.237 683.408 526.761 686.058C519.352 685.979 518.447 679.272 524.867 675.849Z"/><path fill="#9A410B" d="M687.089 502.396C688.817 503.418 691.706 507.081 692.956 508.698C693.083 513.346 692.739 514.345 691.317 518.765C689.233 515.809 687.372 514.1 685.088 510.594C685.656 507.841 686.386 505.119 687.089 502.396Z"/><path fill="#C18B72" d="M250.412 177.16C248.664 178.509 239.153 183.918 237.109 184.678C239.217 182.717 246.294 178.569 249.002 176.95L250.412 177.16Z"/><path fill="#9A410B" d="M647.413 428.459C647.888 425.909 648.505 421.946 649.269 419.587C649.116 423.424 649.055 428.69 648.546 432.39C648.298 430.023 648.665 430.167 647.413 428.459Z"/><path fill="#9A410B" d="M234.17 575.902L239.815 580.18C237.652 579.185 235.254 578.173 233.246 576.922L234.17 575.902Z"/><path fill="#D4BCA6" d="M93.0668 346.608C93.2571 349.477 93.4403 352.014 93.0679 354.881C92.8888 353.53 92.8692 353.568 92.3095 352.41C92.5325 350.486 92.7243 348.51 93.0668 346.608Z"/></svg>