<svg xmlns="http://www.w3.org/2000/svg" width="734" height="758" viewBox="0 0 734 758"><defs><linearGradient id="a" x1="454.868" x2="258.495" y1="530.264" y2="269.71" gradientUnits="userSpaceOnUse"><stop offset="0" stop-color="#fb7708"/><stop offset="1" stop-color="#ffbc06"/></linearGradient></defs><path fill="url(#a)" d="m307.496 229.098.739-.68.645.194c.284 1.133.304.747.183 1.845 2.664 9.044 5.109 19.847 7.488 29.127l15.617 61.277 5.384 21.027c1.941 7.528 3.078 14.202 8.009 20.531 3.704 4.753 5.656 9.509 9.928 14.004 3.868-1.379 6.215-3.202 9.801-4.955 2.754-1.346 5.7-2.319 8.481-3.764a249 249 0 0 0 25.976-15.747c.729-.506 2.349-.796 3.405-1.416 3.904-2.291 7.624-4.943 11.489-7.286 1.8-1.091 5.842-2.602 7.653-3.578 3.369-1.813 15.836-8.39 17.907-10.631.804-1.679.925-2.099 2.127-3.459.409-1.984.737-4.511.982-6.533 1.819-14.996 4.084-29.921 6.159-44.88.148-1.071.056-2.259-.099-3.328a16 16 0 0 1 1.568-1.343c1.619-1.199 5.435-3.787 7.415-3.49 1.313 2.422 2.22 7.947 3.1 10.52 2.627 7.681 10.638 41.807 13.599 46.367 2.288 2.098 4.742 3.818 6.809 5.696 3.502 4.887 13.96 9.904 18.058 13.918 3.981 3.9 26.718 15.63 26.732 19.279-1.054 1.602-4.758 4.565-6.641 4.891-3.787.657-52.887-13.697-60.536-15.751-11.023 8.105-25.015 17.177-36.007 25.221-5.358 3.921-39.875 30.558-42.638 30.912-.571.806-1.141 1.705-1.849 2.379-1.416.92-8.813 6.038-9.163 7.149l.605.12c1.767-1.324 6.013-3.696 8.21-5.098 5.157 3.079 7.95 13.725 11.492 16.693 3.781 5.454 18.196 14.188 24.127 18.497 13.432 9.757 27.189 19.245 40.976 28.492l22.224 15.084c3.194 2.135 16.086 9.908 17.149 12.886-1.106 2.683-5.649 1.984-8.255 2.406-2.087.371-3.568-.587-4.7-.489-5.807.505-10.793 3.324-16.985 2.807-2.649-.221-6.531-1.783-8.196-3.751l.671-.205-.14-.386c-2.988-1.882-8.737-4.544-12.107-6.225l-24.149-11.898c-14.84-7.294-29.625-14.915-44.553-22.027-1.513-.722-2.046-1.048-3.462-.737-1.147.147-17.237-7.58-19.616-8.801-5.398-2.769-17.604-5.671-21.198-9.178l-.016-.076.14.061c-.988-.978-1.287-1.443-2.629-1.837-2.818.733-16.543 12.726-20.476 15.489-6.615 4.647-13.569 9.897-20.548 14.289-4.81 3.027-8.265 3.604-13.135 5.747-6.983 3.072-12.207 4.91-19.429 7.127-9.667 2.284-19.315 4.764-29.327 4.513-3.229-.081-2.833.089-5.53.809-.334-.495-.895-1.154-1.281-1.64.469-1.486.435-4.832.884-5.883 15.655-36.697 51.624-54.706 83.197-74.897-.059-1.525-.021-2.306.099-3.834-1.044-.868-1.097-1.118-1.694-2.298.188-1.272.438-2.076.793-3.319l.351-1.424c.5-2.858.818-12.217.22-14.988-.574-5.723-2.214-16.325-.717-21.346-.272-1.258-.388-3.648-.5-5.02l-1.353-2.204c-.518-2.379-.285-4.163-1.033-6.405l-.485-5.292c.057-1.425-.682-7.612-.861-9.375l-1.862-18.737-.412-5.889c-2.071-15.155-2.476-31.319-4.256-46.593-.174-1.493-.342-5.407.282-6.51 3.304-5.843 11.436-21.656 15.164-26.154"/><path fill="#fefdfe" d="M378.632 411.616c5.157 3.079 7.95 13.725 11.492 16.693 3.781 5.454 18.196 14.188 24.127 18.497 13.432 9.757 27.189 19.245 40.976 28.492l22.224 15.084c3.194 2.135 16.086 9.908 17.149 12.886-1.106 2.683-5.649 1.984-8.255 2.406-.891-.175-.682-.122-1.509-.481l.192-.446c2.323-.758 6.26-1.141 8.803-1.478-24.312-15.031-49.376-33.567-73.013-49.874-9.672-6.672-22.018-14.823-30.629-22.395-2.909-2.558-7.746-12.412-11.275-16.858a259 259 0 0 1-8.311 4.311l-.166-.349.651-.789-.666-.601c1.767-1.324 6.013-3.696 8.21-5.098"/><path fill="#fefdfe" d="m307.496 229.098.739-.68.645.194c.284 1.133.304.747.183 1.845-2.566 2.233-15.188 23.526-15.23 28.254-.052 6.029 1.342 16.604 1.95 23.165l4.933 54.448c.296 3.158 1.836 17.37 1.596 19.933l-1.353-2.204c-.518-2.379-.285-4.163-1.033-6.405l-.485-5.292c.057-1.425-.682-7.612-.861-9.375l-1.862-18.737-.412-5.889c-2.071-15.155-2.476-31.319-4.256-46.593-.174-1.493-.342-5.407.282-6.51 3.304-5.843 11.436-21.656 15.164-26.154"/><path fill="#fdf9fa" d="M341.139 434.226c.224-.199 1.245-1.095 1.385-1.166 4.584-2.325 36.441-26.24 38.305-25.994-.571.806-1.141 1.705-1.849 2.379-1.416.92-8.813 6.038-9.163 7.149l.605.12.666.601-.651.789.166.349c-1.126 1.523-26.195 14.229-29.464 15.773"/><path fill="#fefdfe" d="M302.812 361.277c1.642 7.999 3.752 35.821 1.047 43.375-1.044-.868-1.097-1.118-1.694-2.298.188-1.272.438-2.076.793-3.319l.351-1.424c.5-2.858.818-12.217.22-14.988-.574-5.723-2.214-16.325-.717-21.346"/><path fill="#fdf9fa" d="m456.496 336.26.483-.263c3.987-2.214 16.958-9.215 18.073-13.097 2.288 2.098 4.742 3.818 6.809 5.696l-.551.551c-1.466-.719-2.107-1.165-3.47-2.096-5.99 2.304-14.335 6.675-20.071 9.779z"/><path fill="#f8f0a9" d="M454.169 320.467c-1.923 1.957-11.323 8.55-13.968 8.579.804-1.679.925-2.099 2.127-3.459 4.5-1.443 7.611-2.995 11.841-5.12"/><path fill="#f8f0a9" d="m456.496 336.26 1.273.57c-1.66.851-3.503 1.381-5.283 1.972 1.568-1.153 2.241-1.68 4.01-2.542"/><defs><linearGradient id="b" x1="370.379" x2="339.83" y1="391.642" y2="658.485" gradientUnits="userSpaceOnUse"><stop offset="0" stop-color="#ae450e"/><stop offset="1" stop-color="#d85f0f"/></linearGradient></defs><path fill="url(#b)" d="M91.998 352.096c1.776 5.481.164 9.658.768 15.21l.482-2.03c-1.382 64.645 25.312 130.222 69.966 176.737a288.17 288.17 0 0 0 203.351 88.956 286.5 286.5 0 0 0 83.919-10.264c5.145-1.44 13.879-3.934 18.754-6.099 11.853-5.262 23.732-10.697 35.72-15.666 3.3-1.367 6.185-3.764 9.569-4.607l.231-.116c1.749-1.057 3.205-1.729 4.97-2.681 2.114-1.151 4.176-2.79 6.294-3.891 11.332-5.894 21.368-13.641 31.559-21.314a60 60 0 0 0 2.43-1.899c4.706-3.899 26.497-21.976 26.887-26.395l-.136-.439c1.145-1.536 2.94-3.432 4.221-4.869 26.576-29.819 44.933-65.059 54.476-103.804 1.042-4.231 1.866-9.015 3.276-13.181l.753-.227.655.465c3.563 8.639-1.483 33.817-3.574 43.446-1.666 11.892-6.015 25.721-10.285 37.057-15.14 40.181-41.147 75.834-74.684 102.615-9.893 7.9-19.409 12.843-29.774 19.425a307.67 307.67 0 0 1-164.708 42.668c-78.982-2.304-153.045-31.656-207.557-89.71a263.35 263.35 0 0 1-70.254-163.134 257 257 0 0 1 .037-29.344c.223-4.16.752-8.408.883-12.521.703-4.804.853-9.667 1.771-14.388"/><path fill="#fdf9fa" d="M586.762 537.598c1.145-1.536 2.94-3.432 4.221-4.869 26.576-29.819 44.933-65.059 54.476-103.804 1.042-4.231 1.866-9.015 3.276-13.181l.753-.227.655.465c3.563 8.639-1.483 33.817-3.574 43.446-1.311-6.452 1.304-14.459 1.577-21.416-.283-2.464.613-7.553-.887-8.999a238.4 238.4 0 0 1-47.409 95.9c-1.598 1.974-10.235 12.526-11.902 13.336-.763-.281-.521-.144-1.186-.651"/><path fill="#e37128" d="m648.26 423.176.501.239c.18 1.621.16 2.534.133 4.178-.126 2.31-.317 8.443-.748 10.419-.283-2.464.613-7.553-.887-8.999z"/><path fill="#cc9d87" d="M648.26 423.176c.201-.959.16-1.681.731-2.238.439 2.08.274 4.573-.097 6.655.027-1.644.047-2.557-.133-4.178z"/><path fill="#f77f09" d="M118.57 282.485a65 65 0 0 1 .483-1.488c19.933-59.251 68.788-110.82 124.493-138.257a272 272 0 0 1 118.204-27.531 286 286 0 0 1 42.533 3.637c12.97 1.979 28.775 5.203 41.26 9.447 7.498-.184 56.78 22.19 58.075 28.716l-.45.364c-1.407-.186-3.991-1.442-5.14-2.192-1.721-1.124-5.13-1.483-6.125-2.033-3.028-1.674-13.41-5.197-15.127-7.596-.653-.17-.262-.04-.823-.285-24.279-10.629-52.049-15.038-78.251-16.181-12.671-.936-38.703.019-50.975 2.879l-.191.592c-2.474.154-4.334.857-6.65 1.536-4.806 1.409-10.118 2.264-15.094 2.859-7.37.881-13.131 4.017-19.856 6.432-9.26 3.326-18.22 6.631-27.203 10.751a291 291 0 0 0-40.592 22.938c-2.509 1.671-4.984 3.389-7.492 5.061-30.736 20.487-57.288 51.469-73.957 84.46a308 308 0 0 0-9.163 20.048l-1.932-2.458-3.055-2.884c-1.869.088-7.346.725-9.181 1.214-3.855.703-5.322-.693-9.012-.74-.504-.006-3.302 1.021-4.292 1.28z"/><path fill="#fda41b" d="M445.543 128.293c7.498-.184 56.78 22.19 58.075 28.716l-.45.364c-1.407-.186-3.991-1.442-5.14-2.192-1.721-1.124-5.13-1.483-6.125-2.033-3.028-1.674-13.41-5.197-15.127-7.596 4.44.035 20.444 9.535 22.294 8.585-2.812-1.631-6.114-4-9.069-5.8a167 167 0 0 0-17.793-9.367 290 290 0 0 0-12.924-5.497c-3.271-1.3-11.174-3.423-13.741-5.18"/><defs><linearGradient id="c" x1="509.342" x2="333.477" y1="169.445" y2="280.956" gradientUnits="userSpaceOnUse"><stop offset="0" stop-color="#d3550f"/><stop offset="1" stop-color="#864522"/></linearGradient></defs><path fill="url(#c)" d="M274.169 161.862c.358-.252.826-.596 1.22-.786 46.981-22.701 105.131-26.791 155.704-16.126a259 259 0 0 1 20.686 5.251c3.292.99 6.338 1.982 9.58 3.121 1.431.503 3.969.358 6.018 1.094 15.237 5.473 29.177 13.722 41.583 24.1 2.433 2.036 4.756 5.313 6.957 7.557 3.714 3.786 8.001 7.935 11.401 11.981 5.913 7.039 11.168 14.976 15.37 23.111 9.408 18.215 12.254 38.589 5.585 58.269a87.68 87.68 0 0 1-44.419 50.861c-9.013-3.195-15.191-12.751-19.874-20.708-.691-1.175-1.709-4.502-.741-5.335 2.176-1.872 6.787-4.233 9.316-5.845 14.08-8.97 26.432-21.538 31.624-37.738 2.22-6.927 2.615-17.282 1.47-24.521-.539-3.41-2.2-6.251-3.232-9.337-4.403-13.179-11.732-22.934-21.421-32.705-2.727-2.751-8.283-5.65-10.734-8.634-.798-.971.334-.143-.522-1.133-1.496-1.73-5.479-4.466-7.411-5.81-21.924-15.257-48.6-23.696-74.675-28.434-2.439-.443-5.423-.716-7.89-.679-3.692.055-5.868.799-9.513-.05l-.426-.103c1.531-1.097 1.555-.123 2.809-1.131-7.741-1.305-43.8-2.077-50.081.224l.786.881c-9.049 1.606-19.251 2.622-28.418 4.712-9.637 2.198-20.396 6.149-29.914 8.268-2.668 1.398-5.327 2.34-8.091 3.539-12.079 5.238-24.24 10.609-34.973 18.336-1.446 1.04-4.018 2.392-5.806 1.897-.473-.897-.36-.395.014-1.62.812-.825.802-.911 1.819-1.41 7.177-5.558 11.906-7.751 19.85-11.805 5.685-2.901 9.998-6.544 16.349-9.292"/><path fill="#fdf9fa" d="M263.532 170.138c2.983-1.298 19.665-8.455 21.475-7.921-2.668 1.398-5.327 2.34-8.091 3.539-12.079 5.238-24.24 10.609-34.973 18.336-1.446 1.04-4.018 2.392-5.806 1.897-.473-.897-.36-.395.014-1.62.812-.825.802-.911 1.819-1.41 7.177-5.558 11.906-7.751 19.85-11.805 5.685-2.901 9.998-6.544 16.349-9.292l.165.953c-3.198 2.408-8.817 4.286-11.406 6.996z"/><path fill="#cc9d87" d="M237.97 182.959c7.177-5.558 11.906-7.751 19.85-11.805 5.685-2.901 9.998-6.544 16.349-9.292l.165.953c-3.198 2.408-8.817 4.286-11.406 6.996l.604.327c-2.838 1.632-6.57 3.368-9.522 4.957-4.121 2.219-11.538 8.244-16.04 7.864"/><defs><linearGradient id="d" x1="210.6" x2="126.016" y1="409.023" y2="461.51" gradientUnits="userSpaceOnUse"><stop offset="0" stop-color="#ea6f0b"/><stop offset="1" stop-color="#994017"/></linearGradient></defs><path fill="url(#d)" d="M132.361 282.514c1.835-.489 7.312-1.126 9.181-1.214l3.055 2.884 1.932 2.458a902 902 0 0 1-5.553 16.15c-2.66 10.65-4.69 17.242-6.606 28.377a252.6 252.6 0 0 0 7.102 114.593c3.178 10.324 7.053 21.408 12.302 30.861 1.14 2.052 2.66 3.915 3.576 6.08 1.002 2.278 1.452 5.144 2.588 7.288 11.174 21.084 24.617 41.428 42.508 57.438 2.469 2.21 4.835 5.074 7.293 7.346 7.337 7.201 15.745 13.839 23.878 20.116 2.063 1.341 3.987 2.548 5.459 4.54l-.203.377c-11.708-1.27-45.264-27.113-54.188-36.744-2.134-1.935-3.993-5.215-6.535-7.855-21.823-22.662-37.565-45.416-50.386-74.218a247.84 247.84 0 0 1-16.921-150.96c2.235-10.507 3.915-17.607 7.727-27.546l.487.569c.99-.259 3.788-1.286 4.292-1.28 3.69.047 5.157 1.443 9.012.74"/><path fill="#e37128" d="M132.361 282.514c1.835-.489 7.312-1.126 9.181-1.214l3.055 2.884 1.932 2.458a902 902 0 0 1-5.553 16.15c-.321-.819-.463-1.192-.87-1.949-.944-1.752-1.635-5.929-2.102-8.005-3.54-1.882-2.234-5.143-4.47-7.859-.473-.574-.657-.585-1.409-1.6z"/><path fill="#e37128" d="m184.685 543.064.818-.449c1.629.487 10.486 8.805 12.73 10.616 4.274 3.447 32.248 24.064 35.774 23.579a21 21 0 0 0-.39-1.919c2.063 1.341 3.987 2.548 5.459 4.54l-.203.377c-11.708-1.27-45.264-27.113-54.188-36.744"/><path fill="#f77f09" d="M609.017 150.226c-1.478-8.526 1.716-16.925 6.819-23.928 19.43-26.663 60.706-22.405 73.53 8.521 6.303 15.202 4.597 28.468-5.178 42.099-6.678 9.312-20.968 17.254-32.498 16.999-.924-.186-1.585-.938-2.736-1.084-20.238-2.567-36.689-12.415-40.286-33.827-.249-1.485.424-6.471.349-8.78m38.462 23.456c5.3-.677 15.101-4.468 18.636-8.572 3.476-4.038 5.51-12.137 4.673-17.432-.874-5.523-4.36-11.345-7.745-15.712-2.061-2.437-9.483-3.223-12.953-3.018-.847.372-1.771 1.079-2.187 1.261-8.127 3.564-13.891 7.979-18.123 15.923-1.433 2.689-2.979 5.754-1.948 9.225 1.802 5.524 5.75 11.186 10.849 14.191 3.288 1.938 5.569 2.029 8.228 3.949z"/><path fill="#fdf9fa" d="M609.017 150.226c-1.478-8.526 1.716-16.925 6.819-23.928 19.43-26.663 60.706-22.405 73.53 8.521 6.303 15.202 4.597 28.468-5.178 42.099-6.678 9.312-20.968 17.254-32.498 16.999-.24-.952-.022-.527-.837-1.191l.174-.211c8.698-.351 17.436-3.313 24.312-8.697a40.9 40.9 0 0 0 15.427-27.344 40.82 40.82 0 0 0-8.623-30.447c-21.732-27.08-65.113-16.204-71.953 17.628-.421 2.079-.582 4.514-.773 6.637z"/><path fill="#f77f09" d="M58.795 122.322c3.277-2.926 14.372-14.616 16.757-15.986 3.099.109 14.847 11.081 18.014 13.624a1199 1199 0 0 0 34.473 26.499c4.903 3.605 5.437 5.147 11.169 8.484-.848 2.508-11.376 11.527-13.857 13.381-2.926-2.146-6.122-5.307-9.164-7.575-8.565-6.385-17.931-14.259-26.7-20.224l-2.132.757c1.205 4.133 3.768 8.739 5.568 12.704 4.617 10.169 11.079 21.528 14.486 32.059-2.026 2.588-4.789 5.499-7.636 7.154a2569 2569 0 0 0-25.696-11.653c-5.03-2.274-11.216-5.35-16.403-7.081l-2.24.072-.424.459c.363.82.622 1.405 1.052 2.199.636 2.091 24.81 28.168 28.355 32.246-3.66 4.282-9.042 9.865-13.185 13.573L35.12 181.907c-5.054-5.754-12.857-13.552-16.876-19.405 5.25-5.159 10.586-10.705 15.96-15.655 9.815 2.683 20.16 8.816 29.708 12.542 2.793 1.09 13.002 6.898 15.442 4.94.15-3.739-17.504-35.298-20.559-42.007"/><path fill="#fdf9fa" d="M48.103 169.407c2.608 1.301 7.335 3.491 9.57 5.058l-2.238.072-.425.459c.363.82.622 1.405 1.052 2.199-1.42-.206-6.625-6.338-7.959-7.788"/><path fill="#fdf9fa" d="M83.429 134.917a477 477 0 0 1 6.057 5.608l-2.13.757-.115.38c-.75-.544-3.249-5.662-3.812-6.745"/><path fill="#f77f09" d="M611.363 114.634c.733 3.686-2.42 7.711-4.521 10.496-5.984 7.93-11.994 10.484-21.406 12.164-7.743 1.383-11.662.356-19.409-.637l.093.133c-6.458 1.508-23.854-12.381-27.024-18.084-3.669-5.356-6.619-10.852-6.167-17.478.506-7.417-1.838-14.29 2.386-21.565 5.024-8.626 14.338-17.452 23.778-20.865 14.662-5.3 37.988-2.41 47.368 11.253 5.005 7.29 9.645 12.9 10.077 22.29.211 4.579 1.338 7.591-1.762 11.275-4.275-1.523-14.414-5.727-18.416-7.892-4.078-24.59-22.762-27.929-38.059-10.598-4.995 5.66-6.236 11.031-5.135 18.407.623 4.167 2.585 5.33 5.072 8.256 7.59 5.727 15.495 9.926 24.878 5.199-11.21-8.403-19.056-7.329-8.513-20.558 1.1-1.38 2.161-3.237 3.314-4.691 5.927 2.54 31.642 17.506 33.446 22.895"/><path fill="#fefdfe" d="M577.917 91.739c5.927 2.54 31.642 17.506 33.446 22.895-1.09-.442-8.068-5.294-9.805-6.366-7.664-4.733-15.187-9.59-23.079-13.972-2.525 3.83-5.737 8.399-7.544 12.492 5.03 3.584 11.427 6.862 16.845 10.36q-1.908.844-3.836 1.639c-6.366 2.593-11.637 2.288-17.983-.356-2.328-.971-7.548-4.128-8.439-6.423l.716-.219c7.59 5.727 15.495 9.926 24.878 5.199-11.21-8.403-19.056-7.329-8.513-20.558 1.1-1.38 2.161-3.237 3.314-4.691"/><path fill="#f77f09" d="M137.95 62.09c1.146-.074 2.67.487 3.585 1.156 17.321 12.652 35.049 24.806 52.902 36.695 3.077 2.049 15.256 7.341 16.062 10.204-1.353 1.507-17.206 10.129-19.344 10.924a1154 1154 0 0 1-13.376-10.002 343 343 0 0 1-10.648 6.603c-4.023 2.511-8.671 4.985-12.851 7.309 1.414 4.129 2.743 12.201 4.001 16.94-4.843 3.749-11.546 7.405-16.881 10.446-1.169-3.646-2.776-7.707-3.715-11.336-1.066-4.1-1.281-8.474-2.169-12.591-3.124-14.492-6.174-29.004-9.357-43.483-.999-4.543-2.14-9.143-2.816-13.738q7.35-4.488 14.607-9.127m13.428 48.24c2.683-2.554 9.492-6.031 10.147-8.843-.776-3.02-9.42-10.41-11.785-10.315-2.02-1.107-2.095-1.547-4.091-.424 1.246 5.688 3.48 14.208 5.729 19.582"/><path fill="#fdf9fa" d="M143.782 84.907c1.278 1.057 5.547 4.333 6.008 5.655l-.05.61c-2.02-1.107-2.095-1.547-4.091-.424-.802-1.224-1.457-4.288-1.867-5.84"/><path fill="#f77f09" d="M315.973 3.068c3.925-.292 2.995 2.507 4.406 5.152 10.877 20.38 24.122 39.587 35.881 59.495 1.19 2.013 6.311 6.45 6.288 8.44-2.697 2.02-15.953 2.651-20.074 3.053-4.856.474-6.174-4.18-8.018-7.384-2.364-4.109-2.07-3.801-2.635-7.984-1.544-.146-5.386.668-7.116.976-2.223.076-3.889.563-6.088.815a502 502 0 0 1-14.578 1.433q-1.386 8.177-2.657 16.376c-5.443 1.296-14.33 1.877-20.032 2.234 4.635-20.819 9.628-41.557 13.889-62.451 1.098-5.384 2.197-11.273 3.819-16.493 4.848-1.614 11.831-2.61 16.915-3.662m-8.334 48.915c4.031-.549 9.886-1.186 13.717-1.994.616-2.114-7.105-15.05-8.857-16.953-1.369.822-.773 5.1-2.194 7.315-1.713 1.224-2.411 9.413-2.666 11.632"/><path fill="#fefdfe" d="M311.496 27.79c1.224 1.815 12.492 21.181 12.605 21.85-.696.51-1.959.663-2.745.349.616-2.114-7.105-15.05-8.857-16.953-1.369.822-.773 5.1-2.194 7.315-1.188-2.039.871-9.343 1.191-12.56"/><path fill="#f77f09" d="M463.736 12.546c4.856.533 13.175 3.061 17.992 4.456.789 4.845 1.101 10.683 1.864 15.714 1.242 8.196 2.359 16.8 3.607 24.977.473 3.101 1.574 16.121 2.589 18.185l.823-.264.437.465c.324 2.051.216 1.516-.225 3.227-1.303 5.05.747 13.026.813 19.126-6.421-1.211-12.594-3.127-19.304-4.305-.221-1.208-.315-2.893-.653-3.98-1.103-3.406-2.573-4.92-1.07-8.466 2.123-5.01-5.275-5.728-8.455-6.736-2.244-.711-4.811-1.306-7.145-1.936-2.598-.626-5.326-1.587-7.921-2.24-.271-.16-2.873-.621-2.952-.404-1.138 3.096-6.19 13.726-10.339 13.07-5.956-.942-13.814-2.882-19.717-4.56 1.654-3.588 15.981-21.846 19.05-25.933l17.225-23.11c4.111-5.562 8.809-12.157 13.381-17.286m-9.64 43.887.507.076c2.828.436 11.966 3.073 13.688 2.475.151-.473.28-.776.35-1.264l-.214-1.457c-1.667-2.83-2.84-11.457-2.961-14.785-3.705 4.994-7.437 10.154-11.37 14.955"/><path fill="#fefdfe" d="M452.159 56.934c4.973-6.824 10.48-14.089 14.724-21.324.647 3.965 1.988 16.904 1.544 20.653-1.667-2.83-2.84-11.457-2.961-14.785-3.705 4.994-7.437 10.154-11.37 14.955l.507.076c2.828.436 11.966 3.073 13.688 2.475.151-.473.28-.776.35-1.264.348.926.417 2.818.513 3.885-5.69-1.472-11.269-3.241-16.995-4.671"/><path fill="#f77f09" d="M229.998 23.122c7.236-.152 16.77.29 22.885 4.817 2.413 1.786 8.417 6.35 9.422 8.907l-.378.679c-3.378 1.45-14.594 7.47-17.554 7.46-2.163-.006-8.438-3.944-12.02-4.449-9.885-1.393-20.161 5.535-21.72 15.54-1.76 19.49 17.863 38.372 36.169 24.746 5.236-3.897 4.842-8.696 5.33-14.566 6.047-2.085 12.329-3.815 18.242-5.923l.695.437c.126.404.306.953.338 1.38.797 10.354-.529 17.592-7.069 25.754-7.17 8.946-17.197 13.06-28.295 14.316-10.357 1.177-21.637-1.889-29.67-8.624-15.484-12.983-21.197-39.108-7.034-55.15 8.178-9.264 18.413-14.403 30.659-15.324"/><path fill="#b6b5b6" fill-opacity=".016" d="M514.758 594.217c-1.15-.042-1.929.051-2.922-.513l.197-.686c1.827-1.636 10.457-5.611 12.932-7.348.756-.409 4.522-4.528 5.08-4.472 4.399.438 7.235-4.61 10.496-6.983-1.054.767 2.194-.316 1.872-.183.646-1.3.681-1.285 1.684-2.372.818-.102 1.465-.253 2.269-.427.391-.579.249-.247.145-1.149l.703-.546c1.14-.019 1.663.066 2.696-.438.217-1.189.179-1.656 1.038-2.499l.89.356c.738-.372 2.281-2.513 3.451-3.579.451.564.178.35.812.653 2.914-2.283 3.31-5.135 6.301-6.541 1.146-.539 1.419-.243 2.347-1.432 2.23-2.855 5.301-4.511 7.993-6.899 2.599-2.306 4.808-5.105 7.267-7.429 1.416-1.337 3.124-2.22 4.8-3.811l-.359-1.223c.832-1.643 5.301-6.178 6.737-7.866 2.93-3.441 5.926-6.851 8.728-10.428a245 245 0 0 0 25.022-39.339c.791-1.546 1.477-4.045 2.325-5.643 8.523-16.068 13.558-34.2 17.574-51.862.479-2.103 1.201-6.737 1.798-7.742 2.05-.242 4.131-.039 6.034.781 2.894 4.977-1.244 25.016-1.423 31.952-.131 5.099-3.075 14.945-3.926 20.303l-.071.471-.5-.673c-.626.53-.388 3.022-.529 4.06-1.735 12.714-8.046 24.642-11.715 36.862-.352 1.351-2.283 2.969-2.726 4.098-1.815 4.632-3.571 9.261-6.138 13.542-5.464 9.112-9.959 18.684-16.801 26.902-1.063 1.276-1.898 3.747-2.988 5.172-21.02 27.498-47.155 49.727-77.292 66.642-2.292 1.286-5.968 4.373-8.202 4.447-3.109.102-3.816 2.847-6.581 3.916-3.609 1.434-6.858 3.125-10.573 4.495l.675.434-.173.392c-1.702.959-4.355 2.878-6.253 3.137-1.117.152-2.321-.12-3.394.309-3.582 1.432-6.626 4.075-10.376 5.301-1.996.653-4.077.339-6.05.894-6.066 1.705-11.885 4.407-17.92 6.172-3.008.88-6.174 1.808-9.256 2.401-2.28.438-4.616.567-6.877 1.114-4.548 1.101-8.497 2.739-13.265 2.536-3.965-.168-8.071 1.782-12.071 2.364-3.99.58-8.003.578-11.991 1.061-3.105.376-6.145 1.306-9.261 1.555-4.681.374-30.148 2.031-33.006.787-2.778-1.209-9.669-.644-12.929-.974-4.069-.412-7.943-1.317-11.962-1.871-3.441-.473-6.903-.295-10.358-.908-2.213-.393-4.29-1.471-6.393-1.849-1.131-.203-1.676.353-2.568.909-5.757-2.122-17.946-5.207-23.887-5.742-2.313-.209-14.721-4.555-18.131-5.598-7.302-2.232-14.814-4.658-21.855-7.635-2.219-.938-4.23-2.304-6.428-3.241-36.697-15.643-72.083-40.121-98.015-70.633-27.704-32.598-48.609-70.804-58.4-112.632-.467-1.998-.599-4.076-1.037-6.088-.738-3.385-1.85-6.718-2.421-10.136-.336-2.008-.36-4.046-.633-6.059-.452-3.316-1.192-6.633-1.447-9.969-.24-3.127-.103-6.268-.302-9.395-.204-3.205-.673-6.395-.824-9.604-.145-3.081.13-6.184.132-9.268 0-3.075-.26-6.143-.208-9.22.054-3.144.575-6.256.797-9.388.222-3.122.189-6.312.584-9.414.835-6.566 2.095-12.907 2.563-19.551.021-.3.017-.604.062-.902.163-1.102.702-1.724 1.567-2.368 1.121-.835 2.242-1.323 3.616-1.149 3.69 2.79 1.535 10.408.971 14.418-1.889 13.425.392 27.891 1.508 41.4.03.37.44 6.212.299 5.665 1.856 7.177 2.789 14.592 4.682 21.797.236.901-.167 1.098-.739 1.898-.574-1.403-.784-4.145-1.154-5.938-.913-6.062-3.666-14.19-4.017-20.169-.724-12.345-3.237-26.678-2.999-38.892 1.85-1.947.853-3.765 1.127-6.392.355-3.41 1.266-6.733 1.297-10.105.005-.447-.455-.545-.83-.766l-.784.291c-.994-.494-.48-.306-1.87-.087-2.55.358-1.908 3.362-.865 4.479l-.136 1.939c-.918 4.721-1.068 9.584-1.771 14.388l-.815-1.24c-.565.838-.609 5.322-.732 6.76a245.2 245.2 0 0 0 1.662 60.325c.365 2.543.483 5.162.98 7.686a340 340 0 0 0 9.166 36.488c1.14 3.562 3.075 6.707 3.818 10.501.532 2.719 2.723 5.954 3.747 8.644 4.99 13.111 12.437 25.334 19.558 37.386 2.473 4.185 5.707 7.419 7.622 11.933.683 1.462 4.423 4.675 5.192 6.534 15.213 20.438 33.251 38.657 53.961 53.541 2.843 2.043 7.378 5.841 10.021 7.55a317.1 317.1 0 0 0 138.366 49.246c10.753 1.257 21.544 2.568 32.422 2.552 4.5-.006 8.983-.632 13.469-.955a413 413 0 0 0 61.029-8.883c13.12-2.925 25.476-7.7 38.092-12.117 3.765-1.318 7.185-3.199 10.815-4.847 10.59-4.494 23.521-10.428 32.833-17.255.217-.16.36-1.54.393-1.808C542.191 611.943 551.707 607 561.6 599.1c33.537-26.781 59.544-62.434 74.684-102.615 4.27-11.336 8.619-25.165 10.285-37.057 2.091-9.629 7.137-34.807 3.574-43.446l-.655-.465-.753.227c-1.41 4.166-2.234 8.95-3.276 13.181-9.543 38.745-27.9 73.985-54.476 103.804-1.281 1.437-3.076 3.333-4.221 4.869l.136.439c-1.605 1.09-3.277 1.651-4.545 3.223-4.936 6.122-13.942 11.899-18.774 17.481l.29.949-.414.432-1.313-.395c-1.833 1.417-3.174 2.761-4.832 4.373-.092 1.044.174 1.303.271 2.231-10.191 7.673-20.227 15.42-31.559 21.314-2.118 1.101-4.18 2.74-6.294 3.891-1.765.952-3.221 1.624-4.97 2.681"/><path fill="#fefdfe" fill-opacity=".043" d="M390.124 428.309c.929-.325 1.548-.317 2.438-.644 1.427 1.362 2.605 3.115 6.69 5.95 7.727 5.365 19.161 12.331 26.572 18.796.081.071.026 1.143.004 1.364 2.426-.47 2.284-.269 4.819 1.313 4.153 2.591 2.931 3.788 7.828 5.001.288.738.603 1.435.991 2.125 1.128.355 1.898.557 3.051.813.421 1.04.39 1.279.514 2.378 1.841.639.66-.831 2.867.389 2.63 1.452 4.569 3.869 6.75 5.666.361.298 1.42-.653 2.859.383.221.919.317 1.451.446 2.387 1.209.636 1.906-.277 3.228.606 2.316 1.548 4.897 5.073 7.471 5.71 3.743.926 9.519 7.85 12.164 8.222 2.778.39 16.246 10.479 18.045 13.207.465.705.553 1.292.481 2.113a6.5 6.5 0 0 1-3.505 3.217c-.922.36-4.091.698-5.194.711-11.68.145-20.699 5.381-31.655-.097l-58.616-29.085c-6.602-3.253-21.502-11.264-27.708-13.346-1.801.683-4.624 3.582-6.715 5.059-6.173 4.356-18.074 15.36-26.222 11.852-1.001-.431-2.627-3.66-3.391-4.511-4.453-4.957-8.917-9.534-9.755-16.513-.205-1.699.667-5.625 1.011-7.567 1.411-1.312 5.167-4.088 5.148-6.25-.589-.729-.581-.493-1.854-.645-4.344 1.903-8.878 6.418-12.398 8.933-6.49 4.637-27.251 21.041-33.401 22.109-.431.528-.286.328-.484 1.029-6.645 2.807-13.269 5.85-20.095 8.189-2.856.978-5.818 1.558-8.704 2.422-1.564.468-3.073 1.207-4.652 1.605-2.057.52-4.217.107-6.283.587-6.005 1.394-16.458 3.782-22.235 1.326-1.8-.766-3.27-2.022-3.911-3.913-1.492-4.399 1.902-10.793 3.967-14.594 5.853-10.771 12.794-18.222 21.436-26.762 4.272-4.221 8.49-8.702 13.326-12.325 1.1-.824 2.62-.926 3.636-1.754 1.741-1.417 3.409-4.122 5.52-4.891.699-.254 1.36-.093 2.072.025 1.112-.831 1.762-1.84 2.725-2.031-.072.731-17.373 13.449-19.664 15.276-8.279 6.6-36.48 37.533-31.287 47.513l.645.167.58-.558c.386.486.947 1.145 1.281 1.64 1.775 5.517 31.69-2.523 36.508-3.525-.344-.691-.516.191-1.651-1.797 7.222-2.217 12.446-4.055 19.429-7.127 4.87-2.143 8.325-2.72 13.135-5.747 6.979-4.392 13.933-9.642 20.548-14.289 3.933-2.763 17.658-14.756 20.476-15.489 1.342.394 1.641.859 2.629 1.837l-.14-.061.016.076c3.594 3.507 15.8 6.409 21.198 9.178 2.379 1.221 18.469 8.948 19.616 8.801.204.139 2.197 1.447 2.204 1.456 3.606 4.159 8.502 5.524 13.51 7.968l25.226 12.392 23.375 11.425c4.756 2.361 9.482 5.663 14.73 6.61 2.065.373 2.85.936 4.695 1.627 1.665 1.968 5.547 3.53 8.196 3.751 6.192.517 11.178-2.302 16.985-2.807 1.132-.098 2.613.86 4.7.489 2.606-.422 7.149.277 8.255-2.406-1.063-2.978-13.955-10.751-17.149-12.886l-22.224-15.084c-13.787-9.247-27.544-18.735-40.976-28.492-5.931-4.309-20.346-13.043-24.127-18.497"/><path fill="#fdf9fa" d="M336.005 449.44c5.263.252 31.811 10.305 31.688 14.603-1.881 3.105-10.862 9.054-14.262 11.515-2.355 1.653-10.743 6.664-12.942 4.997-10.127-7.675-23.09-25.274-4.484-31.115"/><path fill="#f77f09" d="M341.005 479.601c-4.523-4.428-15.323-15.344-12.154-22.569 5.654-12.889 29.126 1.879 37.897 6.405-4.599 3.839-12.543 10.082-17.658 12.926-1.557-.143-1.244-.37-2.141.357l-.152.443c-2.228 1.393-3.269 1.618-5.792 2.438"/><path fill="#f8f0a9" d="M337.073 464.078c4.224 3.489 7.939 9.421 12.017 12.285-1.557-.143-1.244-.37-2.141.357l-.152.443c-2.031-2.064-8.277-10.56-9.724-13.085"/><path fill="#9d430a" d="M674.587 566.07c4.849 3.349 11.801 9.718 16.604 13.704a283 283 0 0 0 22.979 17.242l-.23.467c-1.555 3.227-3.252 5.799-5.155 8.82-4.576-3.128-9.209-7.11-13.953-10.407l-.256-.201-.432.159c-2.176 29.789-38.104 8.76-31.409-10.604 1.681-4.862 5.136-6.42 9.461-8.5l-1.605-2.515c1.183-3.188 2.361-5.203 3.996-8.165m8.275 34.9c5.396-3.855 6.446-7.361 2.413-13.216-1.822-2.647-6.594-5.586-9.847-5.293-5.024 4.378-6.779 8.751-1.596 14.399 2.197 2.394 5.802 3.759 9.03 4.11"/><path fill="#9d430a" d="M508.415 698.145c1.101-.053 2.329-.111 3.428-.017a15.74 15.74 0 0 1 10.844 5.814c7.586 9.278 5.672 27.059-8.62 28.383-1.958.181-4.148-.249-6.101-.567 1.588 4.92 3.452 11.253 5.371 15.933l-5.207 1.938c-1.225.374-2.87 1.047-4.108 1.508-1.888-6.154-4.779-13.432-7.013-19.568a2032 2032 0 0 1-9.032-25.739c3.142-.974 5.716-3.04 8.49-2.301.987.768 1.026 1.805 1.33 3.087 2.739-5.498 4.566-7.105 10.618-8.471m-7.486 13.474c1.393 6.386 2.683 14.228 10.839 14.236 10.702-7.133 4.244-20.145-4.956-19.303-2.921 1.368-3.907 2.639-5.883 5.067"/><path fill="#9d430a" d="M470.863 709.991c10.825-.632 13.086 6.537 15.542 15.459 1.323 4.807 2.364 9.7 3.468 14.56q-4.746 1.198-9.507 2.344c-1.075-4.75-5.23-31.277-13.76-21.615-2.981 3.376 1.902 19.482 3.113 24.132-3.147.739-6.079 1.403-9.171 2.376a488 488 0 0 1-4.353-16.913c-1.15-3.694-2.11-7.761-7.276-7.237-.782.045-1.979.895-2.32 1.62-3.192 6.796.792 17.816 2.561 24.76a238 238 0 0 0-9.072 2.233c-2.841-10.511-5.4-21.276-8.094-31.856 2.784-.508 5.97-1.327 8.759-1.972.506 1.084.885 2.53 1.236 3.708 5.388-7.006 11.811-8.608 19.329-3.793 2.543-4.068 4.97-6.273 9.545-7.806"/><path fill="#fdf9fa" d="M713.981 165.753c2.435.283 14.535 13.623 16.391 16.23-12.329 8.658-25.828 17.957-37.708 26.933-1.32.873-2.575 1.492-3.973 2.22-2.421-1.872-10.68-9.708-10.466-12.587 2.683-4.087 31.318-30.136 35.756-32.796"/><path fill="#f77f09" d="M714.087 167.916c3.292 1.345 10.53 10.531 13.037 13.583-9.67 8.571-24.805 18.262-35.801 26.16-.89.584-1.026.802-2.083.844-2.993-1.113-7.922-7.266-10.273-9.917 4.028-3.072 9.313-7.991 13.169-11.432a849 849 0 0 1 21.951-19.238"/><path fill="#9d430a" d="M83.523 599.416c7.457 2.262 16.36 7.734 17.334 16.48.777 6.975-7.1 13.416-11.658 17.958a161 161 0 0 0-7.584 8.057c-1.333-1.128-5.458-5.041-5.996-6.815-.15-.493.429-1.242.74-1.811-.284-.618-3.938-1.254-5.15-1.786-4.526-2.869-8.005-6.507-8.11-12.248-.115-6.275 4.845-10.75 11.071-10.303 6.922.498 11.256 6.233 15.433 11.074 4.148-8.988-1.204-11.065-8.826-14 .899-2.311 1.717-4.353 2.746-6.606m-2.876 27.628c1.241-1.025 2.689-2.159 3.836-3.26-3.236-3.548-4.614-5.761-9.4-6.477-5.473 5.849 1.25 11.916 5.564 9.737"/><path fill="#9d430a" d="M649.322 602.65c11.482-.892 20.739 12.544 30.194 19.105-3.291 2.99-5.286 5.658-9.876 3.947-1.601 11.984-10.5 19.306-20.93 10.792-7.89-8.88.3-16.7 6.95-22.678a90 90 0 0 0-5.46-2.791c-5.756 3.251-6.984 5.772-9.089 11.744-1.726-.614-3.679-1.07-5.464-1.538 1.608-9.316 4.463-14.873 13.675-18.581m9.804 28.244c5.955-3.752 6.869-8.69.375-12.607-3.281 4.026-9.84 11.123-.375 12.607"/><path fill="#9d430a" d="M47.864 554.976c6.826 3.645 17.198 11.552 15.382 20.241-1.892 9.049-16.854 16.31-23.847 21.469-2.939-3.135-3.478-5.262-4.223-9.274l-3.45-2.899c-4.282-3.096-8-7.849-6.554-13.465 1.464-5.682 7.928-8.574 13.359-6.888 6.266 1.946 9.905 7.552 13.02 12.917 3.996-7.935 2.133-11.554-6.382-14.288.875-2.935 1.48-5.026 2.695-7.813m-6.017 27.663c1.234-.949 2.617-1.964 3.804-2.946-2.042-3.574-3.82-6.977-8.355-7.167-6.324 4.724.645 11.636 4.551 10.113"/><path fill="#9d430a" d="M614.847 638.199c10.906 1.144 17.527 13.766 25.427 21.262l.429.403c-2.562 2.018-4.419 4.231-7.517 4.789-1.679-.466-1.305-.505-2.732-1.904-1.673 7.303-5.678 12.564-14.141 12.467-3.339-.039-6.078-2.021-8.275-4.441-5.397-9.88 3.728-16.55 11.197-20.959-1.74-1.204-3.567-2.158-5.421-3.176-5.478 2.389-7.313 4.091-9.974 9.451-2.29-1.073-4.599-2.226-6.878-3.336 4.102-7.525 9.274-12.907 17.885-14.556m4.672 28.772c6.427-2.671 8.585-8.202 2.356-12.659-4.524 4.208-10.691 8.445-2.356 12.659"/><path fill="#9d430a" d="M692.811 529.719c1.638.758 3.143 1.75 4.664 2.717 8.894 5.653 18.322 10.477 27.08 16.343-1.113 2.471-2.499 4.368-4.013 6.608l-3.811-1.367c.825 4.681 1.285 8.975-1.065 13.381-6.987 13.099-21.163 2.294-29.571-2.807l-8.646-5.179c1.34-2.581 3.724-6.589 5.605-8.735 8.497 4.588 13.416 8.491 22.94 12.964 7.317-6.806 4.824-10.79-2.634-16.218-4.676-3.403-10.297-5.583-15.424-8.288 1.788-3.25 3.299-6.038 4.875-9.419"/><path fill="#9d430a" d="M559.652 675.192c9.599-.657 13.087 4.236 17.1 11.857-5.947 3.559-14.223 7.635-20.551 10.415 8.029 5.385 12.026 4.115 17.1-3.843 3.114 1.072 4.697 1.872 7.655 3.398.67 3.69-9.777 10.384-13.387 11.343-22.101 5.871-33.233-26.95-7.917-33.17m-1.082 14.739c2.358-1.25 5.153-2.821 7.545-3.888-2.435-2.4-3.77-3.89-7.455-3.575-5.136 2.674-4.634 4.517-4.518 9.76z"/><path fill="#9d430a" d="M409.502 722.214c13.845-1.277 16.859 4.99 18.894 17.14-6.823 1.157-15.964 1.82-22.994 2.569 6.333 7.804 9.379 7.421 17.349 1.932l1.923 1.571c1.435 1.376 2.896 2.901 4.3 4.324-11.08 7.392-26.902 9.348-31.972-6.29a15.9 15.9 0 0 1 1.028-12.268c2.515-4.909 6.471-7.356 11.472-8.978m2.923 12.802c2.138-.302 4.143-.577 6.295-.783-2.27-4.232-3.123-5.473-8.253-5.092-3.521 1.96-3.815 2.938-5.171 6.837 2.456-.39 4.648-.748 7.129-.962"/><path fill="#9d430a" d="M302.474 719.255c14.973-1.523 17.556 9.298 16.751 21.289-7.859-1.261-15.082-1.956-22.818-3.021 3.589 9.426 6.932 9.003 15.609 6.375 1.55 1.556 3.492 4.836 4.756 6.809q-2.386.753-4.829 1.298c-5.962 1.359-12.051 1.367-17.341-2.114a15.2 15.2 0 0 1-6.7-10.339c-1.713-10.161 4.336-18.644 14.572-20.297m-5.164 12.581c3.023.008 6.418.496 9.451.851 1.384.135 2.639.452 3.786-.248 1.794-3.827-5.047-6.499-8.104-6.722-2.48 2.148-3.369 3.164-5.133 6.119"/><path fill="#fda41b" d="M291.419 369.377c3.245-1.773 1.849-3.379 7-4l.179 1.673c.714 9.057 3.045 18.626 3.604 28.556-3.09 5.514-6.629 6.843-12.398 8.598-2.504-.081-2.385-1.061-4.962-1.622l-.635-.082c-3.211-2.866-9.175-12.618-10.925-16.529.204-4.664.294-5.793 4.889-7.332 4.254-3.263 8.8-6.257 13.248-9.262"/><path fill="#9d430a" d="M175.215 671.569c1.648.529 5.606 2.975 7.032 4.126.543 1.148.12 1.531-.269 3.145.68.73 8.347-1.052 12.085 1.351 11.756 7.556-.762 25.572-6.178 34.782a510 510 0 0 1-8.744-4.473c1.542-3.633 4.591-8.807 6.599-12.414 1.475-2.728 3.438-6.048 2.696-9.258a4.98 4.98 0 0 0-2.475-3.283c-4.4-2.457-7.38 1.444-9.421 4.848-2.841 4.739-5.266 9.742-7.75 14.675-3.305-1.491-5.834-2.843-8.991-4.573 3.345-7.183 11.404-22.364 15.416-28.926"/><path fill="#9d430a" d="M592.554 653.911c5.487 3.406 2.031 23.281 1.413 29.371 2.932-1.825 10.226-6.463 13.063-7.56l4.568 5.793c-7.893 4.964-14.806 9.369-22.461 14.733-.869.411-.567.317-1.49.455-5.47-2.525-2.183-23.375-1.375-28.604l-.339.164-.561.283c-3.499 1.729-7.012 4.291-10.277 6.5-1.924-2.291-3.069-4.167-4.681-6.705 7.388-4.67 14.687-9.724 22.14-14.43"/><path fill="#9d430a" d="M137.155 650.344c6.304-.236 13.229 3.007 16.536 8.391 2.611 4.251-1.835 6.287-4.748 7.57-1.82-3.296-4.878-10.245-9.653-7.701-1.658 3.897 6.95 9.945 7.014 15.831.077 6.991-3.92 8.91-10.116 9.289-9.986-2.779-12.861-5.445-17.482-14.71a289 289 0 0 1 6.97-2.201c1.804 2.925 6.371 11.978 10.718 8.365 2.029-5.026-17.365-19.368.761-24.834"/><path fill="#9d430a" d="M333.025 723.298c7.474-.455 9.476.378 15.992 4.042-1.17 2.466-1.825 3.51-3.35 5.794-2.017-.941-12.963-6.099-12.006-.278 2.053 2.826 7.329 4.526 10.351 6.564 4.894 3.299 6.605 7.415 2.919 12.498-2.956 4.078-6.369 4.455-10.959 5.177-5.71-1.345-10.777-2.177-15.004-6.482 1.557-1.818 2.79-3.24 4.494-4.915 3.82 2.581 4.744 3.286 9.247 4.279 2.054-.612 3.368-.747 4.417-2.539-1.53-2.174-5.892-3.952-8.189-5.429-10.895-7.007-10.354-15.071 2.088-18.711"/><path fill="#9d430a" d="M222.977 697.341a25 25 0 0 1 2.077-.113c6.838-.018 11.335 3.159 15.802 7.78-1.599 2.647-2.291 3.512-4.306 5.889-2.271-2.347-8.06-8.342-11.732-5.194-.248 2.985 5.766 7.073 7.687 9.33 3.508 4.123 4.816 8.741.822 13.048-2.478 2.674-4.54 2.662-7.915 2.86q-.78-.075-1.556-.18c-7.272-1.003-11.773-4.273-16.088-9.962 1.393-1.225 4.253-3.078 5.881-4.198 3.063 3.503 6.59 7.837 11.537 6.924.968-.178.807-.11 1.266-.872-.832-6.61-22.153-17.953-3.475-25.312"/><path fill="#9d430a" d="M251.238 698.289c2.48.376 5.815 1.188 8.331 1.722q-1.07 4.23-2.27 8.425c2.887.677 5.295 1.484 8.119 2.414-.509 2.23-1.274 4.785-1.887 7.02-2.908-.825-5.417-1.565-8.263-2.569-1.369 4.127-4.585 12.225-3.524 16.636.429 1.784 3.702 2.379 5.625 3.236.837 1.092.605.629.483 2.357l-.627 4.752c-21.954-3.684-16.344-13.173-11.039-29.443-2.27-.629-3.068-.416-3.996-2.553.034-1.843 1.359-4.132 2.189-5.902 1.385.339 2.985.9 4.363 1.342z"/><path fill="#9d430a" d="M73.272 583.179c1.829.874 5.301 5.241 6.788 6.973-3.32 3.244-9.685 8.325-13.669 11.18-9.211 6.6-17.174 18.856-29.106 12.074-2.898-1.957-4.178-3.535-6.228-6.302 2.012-1.455 3.699-2.46 5.838-3.729 1.427.975 3.134 2.757 4.845 3.061 3.453.613 26.716-20.007 31.095-22.965z"/><path fill="#fefdfe" fill-opacity=".035" d="M271.317 379.925c2.625-2.734 7.559-5.546 11.305-9.054l.336 1.018c2.939-1.696 3.557-2.119 5.426-4.916.336-.503 1.017-.866 1.742-.85l-.257.645.169.304c2.361-2.564 6.674-3.02 8.949-4.757.847-.647-1.092-13.782-1.25-15.202l-2.387-23.572c-1.491-14.868-2.64-30.283-3.899-45.295.148-4.076-3.235-20.699-1.621-23.502 4.282-7.436 11.402-21.089 16.246-27.655l.637.263c.165.933.28.921.783 1.746-3.728 4.498-11.86 20.311-15.164 26.154-.624 1.103-.456 5.017-.282 6.51 1.78 15.274 2.185 31.438 4.256 46.593-1.782 2.583-.705 5.728-.426 9.034.226-.767.645-2.729.838-3.145l1.862 18.737c.179 1.763.918 7.95.861 9.375-.883 1.888-1.116 2.987-.545 5.008.493.179.518.236 1.03.284.748 2.242.515 4.026 1.033 6.405-.227 2.532-.017 9.165-1.1 10.566l-1.44.758c-5.151.621-3.755 2.227-7 4-4.539-.177-13.023 4.376-13.248 9.262-4.595 1.539-4.685 2.668-4.889 7.332 1.75 3.911 7.714 13.663 10.925 16.529l.635.082c.565 1.047.786 1.433 1.177 2.594 2.364 1.244 4.748 1.38 7.283.63l.224-.797c5.191-2.067 6.756-3.723 9.085-8.408l.347 2.434c-.355 1.243-.605 2.047-.793 3.319-.848 7.132-3.01 6.925-8.472 9.766l-.379-.29c.981-2.192 6.308-3.225 7.738-6.746-.142-1.468.099-.812-.79-2.029-1.626.311-1.705 1.791-2.814 2.491-9.996 6.314-16.18-1.384-20.752-8.882-5.114-8.39-5.534-7.789-5.379-16.739"/><path fill="#f77f09" d="m666.317 227.003.131.322-.533.233c-14.257-2.825-10.305-25.191 2.205-22.214 3.753-.156 5.963-.905 8.75 1.836 2.606 2.563 4.331 5.54 4.306 9.292a12.06 12.06 0 0 1-3.698 8.516c-5.898 5.613-9.368.609-11.161 2.015"/><path fill="#fdf9fa" d="m666.317 227.003.131.322-.533.233c-14.257-2.825-10.305-25.191 2.205-22.214-6.64 2.159-10.757 6.545-8.928 13.923 1.203 4.856 5.688 5.379 7.125 7.736"/><path fill="#9d430a" d="M110.522 622.392c1.574 1.209 4.173 3.866 5.602 5.34 1.566 1.616-.624 1.881-.757 3.672 5.806 1.323 5.946.515 11.042 3.902-1.518 2.422-3.621 4.675-5.518 6.839-9.983-7.258-11.208-4.156-18.444 4.134-2.119 2.502-4.73 5.194-6.979 7.626a141 141 0 0 1-7.666-6.679c7.426-8.297 15.5-16.227 22.72-24.834"/><path fill="#9d430a" d="M270.859 712.264c2.079.617 5.671 1.304 7.625 2.182.355.159.471 1.992.56 2.618 4.844-1.184 5.565-1.621 10.55-1.579-.241 2.801-.963 6.6-1.437 9.422a55 55 0 0 0-1.881-.665c-8.94-2.954-9.912 4.468-11.673 11.093l-2.554 10.336c-2.815-.704-6.273-1.296-9.175-1.89 2.454-11.317 4.57-20.434 7.985-31.517"/><path fill="#9d430a" d="M700.051 511.724c9.642 4.255 23.344 11.778 32.819 16.873-1.163 3.491-2.103 6.015-3.533 9.409-4.28-1.99-9.929-5.28-14.256-7.594a377 377 0 0 0-19.08-9.536c1.376-2.892 2.746-6.196 4.05-9.152"/><path fill="#9d430a" d="M42.614 539.269c.384-.012.753.098 1.148.176 1.54 1.64 3.616 5.489 4.823 7.551-6.105 3.775-23.298 11.184-30.356 14.267-.487.187-.286.097-.99-.117-1.837-2.309-3.353-6.084-4.505-8.819 10.065-3.64 20.292-9.741 29.88-13.058"/><path fill="#9d430a" d="M533.514 687.25c3.223 1.556 12.303 25.362 14.35 30.426l-8.083 4.043c-1.067-.626-12.959-27.159-14.621-30.491z"/><path fill="#9d430a" d="m161.361 663.226 8.552 4.94a2390 2390 0 0 1-17.145 27.787c-2.885-1.173-6.142-3.477-8.681-5.267 1.591-2.868 5.483-8.399 7.422-11.432 2.297-3.592 7.512-13.339 9.852-16.028"/><path fill="#9d430a" d="M52.706 532.869a5.612 5.612 0 1 1 3.552 10.647 5.612 5.612 0 0 1-3.552-10.647"/><path fill="#9d430a" d="M168.289 652.208c.864-.013 1.725.077 2.567.267 1.667.372 3.208 1.496 4.036 2.995a5 5 0 0 1 .385 4c-.693 2.162-2.135 2.984-4.004 3.991a19 19 0 0 1-2.684-.696c-5.25-1.783-6.712-7.929-.3-10.557"/><path fill="#9d430a" d="M82.834 574.875c2.858.458 4.832 1.163 6.056 4.049a5.06 5.06 0 0 1-.044 4.13c-.885 1.926-2.248 2.44-4.1 3.148-7.355-.954-9.871-8.632-1.912-11.327"/><path fill="#9d430a" d="M524.574 675.824c7.74-.431 9.959 6.265 2.559 10.268-8.301.479-8.75-5.852-2.559-10.268"/><path fill="#fefdfe" fill-opacity=".988" d="m343.339 149.237-.786-.881c6.281-2.301 42.34-1.529 50.081-.224-1.254 1.008-1.278.034-2.809 1.131-12.753-.216-25.46-.98-38.199-.261-2.721.153-5.554.161-8.287.235"/><path fill="#9d430a" d="M687.061 502.41c2.883 2.031 4.427 3.644 6.016 6.825-.031 4.435-.136 5.612-1.52 9.804-2.575-2.94-4.433-5.021-6.65-8.277.398-3.146.992-5.442 2.154-8.352"/><path fill="#fefdfe" fill-opacity=".945" d="m346.536 132.557.191-.592c12.272-2.86 38.304-3.815 50.975-2.879-12.842 1.469-26.234 1.191-39.167 2.535-2.694.28-9.782 1.316-11.999.936"/><path fill="#fefdfe" fill-opacity=".016" d="m300.959 354.053 1.353 2.204c.112 1.372.228 3.762.5 5.02-1.497 5.021.143 15.623.717 21.346l-.014 2.34c-.528.216-.315.115-1.053-.04-.197-7.803-1.4-10.815-3.864-17.873l-.179-1.673 1.44-.758c1.083-1.401.873-8.034 1.1-10.566"/><path fill="#fefdfe" fill-opacity=".765" d="M298.598 367.05c2.464 7.058 3.667 10.07 3.864 17.873.003 1.355-.056 1.538.581 2.781l.397-.217c.093-.984.176-1.522.075-2.524l.014-2.34c.598 2.771.28 12.13-.22 14.988-.167-1.667-.21-3.1-.263-4.765-.233 1.159-.441 1.676-.844 2.76-.559-9.93-2.89-19.499-3.604-28.556"/><path fill="#fdf9fa" fill-opacity=".988" d="M92.999 345.678c1.39-.219.876-.407 1.87.087.024 7.178-1.413 13.313-1.62 19.511l-.483 2.03c-.604-5.552 1.008-9.729-.768-15.21l.135-1.939z"/><path fill="#fefdfe" fill-opacity=".655" d="M302.202 395.606c.403-1.084.611-1.601.844-2.76.053 1.665.096 3.098.263 4.765l-.351 1.424-.347-2.434c-2.329 4.685-3.894 6.341-9.085 8.408-1.923.319-2.016.202-3.722-.805 5.769-1.755 9.308-3.084 12.398-8.598"/><path fill="#fefdfe" fill-opacity=".059" d="m370.422 416.714-.605-.12c.35-1.111 7.747-6.229 9.163-7.149l.577 1.39c-.706.471-.401.208-.925.781-2.197 1.402-6.443 3.774-8.21 5.098"/><path fill="#020202" fill-opacity=".561" d="M300.234 740.251c2.357.315 10.006 1.233 11.484 2.445-2.785-.217-6.941.1-9.664-.732z"/><path fill="#020202" fill-opacity=".247" d="M161.911 123.933c.354.223.155.061.511.574-1.837 2.11-2.617 3.006-3.612 5.603l-.166-.155c-1.004-3.624.376-4.247 3.267-6.022"/><path fill="#020202" fill-opacity=".945" d="m696.097 512.176.178.187c.208.965-1.594 6.386-2.041 7.755l-.532-.669c.248-3.195.88-4.564 2.395-7.273"/><path fill="#020202" fill-opacity=".278" d="m258.668 166.471.729.322c-1.754 1.273-4.268 2.572-6.212 3.648l-.075-1.046c1.568-.923 3.895-2.052 5.558-2.924"/><path fill="#020202" fill-opacity=".875" d="m612.011 649.787.552.383-.047.567c-2.13 1.594-3.113 1.886-4.358 4.336l-.448-.096-.216-.576c.88-1.666 3.047-3.428 4.517-4.614"/><path fill="#020202" fill-opacity=".459" d="M648.889 614.225c.756.004 1.341.036 2.095.092l.307.551c-1.303.716-.778.531-2.446.388-.933.723-.971 1.026-1.917 1.055.652-1.228.861-1.298 1.961-2.086"/><path fill="#020202" fill-opacity=".808" d="M644.972 619.112c.228 2.662-.541 4.149-1.86 6.444-.045-1.804 1.192-4.679 1.86-6.444"/><path fill="#020202" fill-opacity=".094" d="M226.375 43.354c1.19.012 2.59.007 3.434.781l-.655.233c-1.077.164-2.455.551-3.265-.148z"/><path fill="#020202" fill-opacity=".11" d="m140.116 428.265 1.069.512c.613 1.206.281 1.994.024 3.351l-.416-.154c-.534-1.053-.559-2.492-.677-3.709"/><path fill="#fefdfe" fill-opacity=".412" d="M302.462 384.923c.738.155.525.256 1.053.04.101 1.002.018 1.54-.075 2.524l-.397.217c-.637-1.243-.578-1.426-.581-2.781"/><path fill="#020202" fill-opacity=".067" d="m172.325 244.562.316.757c-.552.945-.98 1.737-1.483 2.712-.402-.837-.321-.512-.317-1.434.82-.783.97-1.021 1.484-2.035"/><path fill="#020202" fill-opacity=".125" d="M258.668 166.471c1.51-.835 1.351-1.092 2.673-.875-.459.777-1.049.989-1.944 1.197z"/><path fill="#020202" fill-opacity=".18" d="M253.185 170.441c-1.099.611-.935.752-2.009.69.539-1.194.563-.905 1.934-1.736z"/><path fill="#f77f09" d="M354.962 0h16.513c3.635 3.147 23.913 2.847 29.181 2.55 1.409-.079 6.508.914 8.369 1.047 5.142.37 9.996.449 15.144.468.262 5.127-.015 10.568-.277 15.69-5.326-.212-18.938-.51-23.856-1.27-.311 20.322-1.945 40.134-2.311 60.422-6.286-.084-12.688-.312-18.982-.49-.18-7.356.261-14.8.526-22.16l1.24-38.107-23.522-1.13c-3.101-6.184-2.245-10.05-2.025-17.02"/><path fill="#9d430a" d="M0 526.307c8.757-7.191 18.152-16.134 26.974-22.849 1.632 2.948 3.307 5.82 4.538 8.961a1704 1704 0 0 0-18.458 15.195c6.217-1.021 18.07-1.227 24.656-1.66 1.249 2.919 2.674 6.52 4.034 9.329-12.847.601-25.71.833-38.57.696-1.124-2.467-1.586-3.588-3.174-5.792z"/><path fill="#9d430a" d="M354.842 747.785c3.242 1.495 10.803 5.659 13.271 1.24-.247-1.181-.565-1.585-1.738-2.349-4.96-3.213-12.601-4.538-14.072-11.235-.398-1.807.198-4.876 1.432-6.218 6.9-7.504 16.475-5.758 23.862-1.416-1.016 2.143-2.075 4.493-3.191 6.566-3.297-1.458-8.873-4.359-12.287-1.756-.137.627-.309.918.27 1.488 5.653 5.561 17.045 4.795 15.644 15.671-.694 5.388-6.262 6.312-10.204 8.224h-8.744c-3.212-1.803-5.537-1.97-8.53-4.319 1.59-2.599 2.334-3.556 4.287-5.896"/></svg>